solid OpenSCAD_Model
  facet normal -1 0 0
    outer loop
      vertex 0 14.6184 15.0956
      vertex 0 0 35
      vertex 0 31.5 0
    endloop
  endfacet
  facet normal -1 0 0
    outer loop
      vertex 0 31.5 0
      vertex 0 0 35
      vertex 0 31.5 35
    endloop
  endfacet
  facet normal -1 0 0
    outer loop
      vertex 0 0 0
      vertex 0 0 35
      vertex 0 9.03257 13.4554
    endloop
  endfacet
  facet normal -1 0 0
    outer loop
      vertex 0 0 0
      vertex 0 9.03257 13.4554
      vertex 0 9.28918 11.6707
    endloop
  endfacet
  facet normal -1 0 0
    outer loop
      vertex 0 0 0
      vertex 0 9.28918 11.6707
      vertex 0 10.4699 10.308
    endloop
  endfacet
  facet normal -1 0 0
    outer loop
      vertex 0 0 0
      vertex 0 10.4699 10.308
      vertex 0 31.5 0
    endloop
  endfacet
  facet normal -1 0 0
    outer loop
      vertex 0 10.4699 10.308
      vertex 0 12.2 9.8
      vertex 0 31.5 0
    endloop
  endfacet
  facet normal -1 0 0
    outer loop
      vertex 0 15.1108 11.6707
      vertex 0 31.5 0
      vertex 0 13.9301 10.308
    endloop
  endfacet
  facet normal -1 0 0
    outer loop
      vertex 0 13.1015 16.0704
      vertex 0 0 35
      vertex 0 14.6184 15.0956
    endloop
  endfacet
  facet normal -1 0 0
    outer loop
      vertex 0 11.2985 16.0704
      vertex 0 0 35
      vertex 0 13.1015 16.0704
    endloop
  endfacet
  facet normal -1 0 0
    outer loop
      vertex 0 15.1108 11.6707
      vertex 0 15.3674 13.4554
      vertex 0 31.5 0
    endloop
  endfacet
  facet normal -1 0 0
    outer loop
      vertex 0 15.3674 13.4554
      vertex 0 14.6184 15.0956
      vertex 0 31.5 0
    endloop
  endfacet
  facet normal -1 0 0
    outer loop
      vertex 0 9.7816 15.0956
      vertex 0 0 35
      vertex 0 11.2985 16.0704
    endloop
  endfacet
  facet normal -1 0 0
    outer loop
      vertex 0 9.03257 13.4554
      vertex 0 0 35
      vertex 0 9.7816 15.0956
    endloop
  endfacet
  facet normal -1 0 0
    outer loop
      vertex 0 13.9301 10.308
      vertex 0 31.5 0
      vertex 0 12.2 9.8
    endloop
  endfacet
  facet normal 0 -1 0
    outer loop
      vertex 19 0 10
      vertex 0 0 0
      vertex 45 0 0
    endloop
  endfacet
  facet normal 0 -1 0
    outer loop
      vertex 0 0 35
      vertex 0 0 0
      vertex 19 0 10
    endloop
  endfacet
  facet normal 0 -1 0
    outer loop
      vertex 19 0 17.5
      vertex 41 0 17.5
      vertex 0 0 35
    endloop
  endfacet
  facet normal 0 -1 0
    outer loop
      vertex 0 0 35
      vertex 19 0 10
      vertex 19 0 17.5
    endloop
  endfacet
  facet normal 0 -1 0
    outer loop
      vertex 45 0 35
      vertex 41 0 17.5
      vertex 45 0 0
    endloop
  endfacet
  facet normal 0 -1 0
    outer loop
      vertex 45 0 35
      vertex 0 0 35
      vertex 41 0 17.5
    endloop
  endfacet
  facet normal 0 -1 0
    outer loop
      vertex 41 0 17.5
      vertex 41 0 10
      vertex 45 0 0
    endloop
  endfacet
  facet normal 0 -1 0
    outer loop
      vertex 41 0 10
      vertex 19 0 10
      vertex 45 0 0
    endloop
  endfacet
  facet normal 0 0 -1
    outer loop
      vertex 31.1498 29.4397 0
      vertex 0 31.5 0
      vertex 45 31.5 0
    endloop
  endfacet
  facet normal 0 0 -1
    outer loop
      vertex 0 0 0
      vertex 0 31.5 0
      vertex 19.2404 16.213 0
    endloop
  endfacet
  facet normal 0 0 -1
    outer loop
      vertex 0 0 0
      vertex 19.2404 16.213 0
      vertex 19.951 14.0259 0
    endloop
  endfacet
  facet normal 0 0 -1
    outer loop
      vertex 0 0 0
      vertex 19.951 14.0259 0
      vertex 21.1008 12.0344 0
    endloop
  endfacet
  facet normal 0 0 -1
    outer loop
      vertex 0 0 0
      vertex 21.1008 12.0344 0
      vertex 22.6396 10.3254 0
    endloop
  endfacet
  facet normal 0 0 -1
    outer loop
      vertex 0 0 0
      vertex 22.6396 10.3254 0
      vertex 24.5 8.97372 0
    endloop
  endfacet
  facet normal 0 0 -1
    outer loop
      vertex 0 0 0
      vertex 24.5 8.97372 0
      vertex 26.6008 8.03838 0
    endloop
  endfacet
  facet normal 0 0 -1
    outer loop
      vertex 0 0 0
      vertex 26.6008 8.03838 0
      vertex 45 0 0
    endloop
  endfacet
  facet normal 0 0 -1
    outer loop
      vertex 31.1498 7.56026 0
      vertex 45 0 0
      vertex 28.8502 7.56026 0
    endloop
  endfacet
  facet normal 0 0 -1
    outer loop
      vertex 33.3992 8.03838 0
      vertex 45 0 0
      vertex 31.1498 7.56026 0
    endloop
  endfacet
  facet normal 0 0 -1
    outer loop
      vertex 28.8502 7.56026 0
      vertex 45 0 0
      vertex 26.6008 8.03838 0
    endloop
  endfacet
  facet normal 0 0 -1
    outer loop
      vertex 35.5 8.97372 0
      vertex 45 0 0
      vertex 33.3992 8.03838 0
    endloop
  endfacet
  facet normal 0 0 -1
    outer loop
      vertex 41 18.5 0
      vertex 45 31.5 0
      vertex 40.7596 16.213 0
    endloop
  endfacet
  facet normal 0 0 -1
    outer loop
      vertex 45 0 0
      vertex 35.5 8.97372 0
      vertex 37.3604 10.3254 0
    endloop
  endfacet
  facet normal 0 0 -1
    outer loop
      vertex 45 0 0
      vertex 37.3604 10.3254 0
      vertex 38.8992 12.0344 0
    endloop
  endfacet
  facet normal 0 0 -1
    outer loop
      vertex 45 0 0
      vertex 38.8992 12.0344 0
      vertex 40.049 14.0259 0
    endloop
  endfacet
  facet normal 0 0 -1
    outer loop
      vertex 45 0 0
      vertex 40.049 14.0259 0
      vertex 40.7596 16.213 0
    endloop
  endfacet
  facet normal 0 0 -1
    outer loop
      vertex 45 0 0
      vertex 40.7596 16.213 0
      vertex 45 31.5 0
    endloop
  endfacet
  facet normal 0 0 -1
    outer loop
      vertex 40.7596 20.787 0
      vertex 45 31.5 0
      vertex 41 18.5 0
    endloop
  endfacet
  facet normal 0 0 -1
    outer loop
      vertex 40.049 22.9741 0
      vertex 45 31.5 0
      vertex 40.7596 20.787 0
    endloop
  endfacet
  facet normal 0 0 -1
    outer loop
      vertex 35.5 28.0263 0
      vertex 45 31.5 0
      vertex 37.3604 26.6746 0
    endloop
  endfacet
  facet normal 0 0 -1
    outer loop
      vertex 40.049 22.9741 0
      vertex 38.8992 24.9656 0
      vertex 45 31.5 0
    endloop
  endfacet
  facet normal 0 0 -1
    outer loop
      vertex 38.8992 24.9656 0
      vertex 37.3604 26.6746 0
      vertex 45 31.5 0
    endloop
  endfacet
  facet normal 0 0 -1
    outer loop
      vertex 26.6008 28.9616 0
      vertex 0 31.5 0
      vertex 28.8502 29.4397 0
    endloop
  endfacet
  facet normal 0 0 -1
    outer loop
      vertex 24.5 28.0263 0
      vertex 0 31.5 0
      vertex 26.6008 28.9616 0
    endloop
  endfacet
  facet normal 0 0 -1
    outer loop
      vertex 35.5 28.0263 0
      vertex 33.3992 28.9616 0
      vertex 45 31.5 0
    endloop
  endfacet
  facet normal 0 0 -1
    outer loop
      vertex 28.8502 29.4397 0
      vertex 0 31.5 0
      vertex 31.1498 29.4397 0
    endloop
  endfacet
  facet normal 0 0 -1
    outer loop
      vertex 33.3992 28.9616 0
      vertex 31.1498 29.4397 0
      vertex 45 31.5 0
    endloop
  endfacet
  facet normal 0 0 -1
    outer loop
      vertex 22.6396 26.6746 0
      vertex 0 31.5 0
      vertex 24.5 28.0263 0
    endloop
  endfacet
  facet normal 0 0 -1
    outer loop
      vertex 21.1008 24.9656 0
      vertex 0 31.5 0
      vertex 22.6396 26.6746 0
    endloop
  endfacet
  facet normal 0 0 -1
    outer loop
      vertex 19.951 22.9741 0
      vertex 0 31.5 0
      vertex 21.1008 24.9656 0
    endloop
  endfacet
  facet normal 0 0 -1
    outer loop
      vertex 19.2404 20.787 0
      vertex 0 31.5 0
      vertex 19.951 22.9741 0
    endloop
  endfacet
  facet normal 0 0 -1
    outer loop
      vertex 19 18.5 0
      vertex 0 31.5 0
      vertex 19.2404 20.787 0
    endloop
  endfacet
  facet normal 0 0 -1
    outer loop
      vertex 19.2404 16.213 0
      vertex 0 31.5 0
      vertex 19 18.5 0
    endloop
  endfacet
  facet normal 0 1 0
    outer loop
      vertex 41 31.5 10
      vertex 45 31.5 0
      vertex 19 31.5 10
    endloop
  endfacet
  facet normal 0 1 0
    outer loop
      vertex 41 31.5 17.5
      vertex 0 31.5 35
      vertex 45 31.5 35
    endloop
  endfacet
  facet normal 0 1 0
    outer loop
      vertex 0 31.5 0
      vertex 0 31.5 35
      vertex 19 31.5 17.5
    endloop
  endfacet
  facet normal 0 1 0
    outer loop
      vertex 0 31.5 0
      vertex 19 31.5 17.5
      vertex 19 31.5 10
    endloop
  endfacet
  facet normal 0 1 0
    outer loop
      vertex 0 31.5 0
      vertex 19 31.5 10
      vertex 45 31.5 0
    endloop
  endfacet
  facet normal 0 1 0
    outer loop
      vertex 45 31.5 0
      vertex 41 31.5 10
      vertex 45 31.5 35
    endloop
  endfacet
  facet normal 0 1 0
    outer loop
      vertex 41 31.5 10
      vertex 41 31.5 17.5
      vertex 45 31.5 35
    endloop
  endfacet
  facet normal 0 1 0
    outer loop
      vertex 19 31.5 17.5
      vertex 0 31.5 35
      vertex 41 31.5 17.5
    endloop
  endfacet
  facet normal 0 0 1
    outer loop
      vertex 31.1498 7.56026 35
      vertex 0 0 35
      vertex 45 0 35
    endloop
  endfacet
  facet normal 0 0 1
    outer loop
      vertex 0 31.5 35
      vertex 0 0 35
      vertex 19.2404 16.213 35
    endloop
  endfacet
  facet normal 0 0 1
    outer loop
      vertex 33.3992 8.03838 35
      vertex 31.1498 7.56026 35
      vertex 45 0 35
    endloop
  endfacet
  facet normal 0 0 1
    outer loop
      vertex 19.2404 20.787 35
      vertex 0 31.5 35
      vertex 19 18.5 35
    endloop
  endfacet
  facet normal 0 0 1
    outer loop
      vertex 40.7596 20.787 35
      vertex 41 18.5 35
      vertex 45 0 35
    endloop
  endfacet
  facet normal 0 0 1
    outer loop
      vertex 19.951 22.9741 35
      vertex 0 31.5 35
      vertex 19.2404 20.787 35
    endloop
  endfacet
  facet normal 0 0 1
    outer loop
      vertex 21.1008 24.9656 35
      vertex 0 31.5 35
      vertex 19.951 22.9741 35
    endloop
  endfacet
  facet normal 0 0 1
    outer loop
      vertex 22.6396 26.6746 35
      vertex 0 31.5 35
      vertex 21.1008 24.9656 35
    endloop
  endfacet
  facet normal 0 0 1
    outer loop
      vertex 24.5 28.0263 35
      vertex 0 31.5 35
      vertex 22.6396 26.6746 35
    endloop
  endfacet
  facet normal 0 0 1
    outer loop
      vertex 26.6008 28.9616 35
      vertex 0 31.5 35
      vertex 24.5 28.0263 35
    endloop
  endfacet
  facet normal 0 0 1
    outer loop
      vertex 28.8502 29.4397 35
      vertex 0 31.5 35
      vertex 26.6008 28.9616 35
    endloop
  endfacet
  facet normal 0 0 1
    outer loop
      vertex 45 31.5 35
      vertex 0 31.5 35
      vertex 28.8502 29.4397 35
    endloop
  endfacet
  facet normal 0 0 1
    outer loop
      vertex 33.3992 28.9616 35
      vertex 35.5 28.0263 35
      vertex 45 31.5 35
    endloop
  endfacet
  facet normal 0 0 1
    outer loop
      vertex 35.5 28.0263 35
      vertex 37.3604 26.6746 35
      vertex 45 31.5 35
    endloop
  endfacet
  facet normal 0 0 1
    outer loop
      vertex 35.5 8.97372 35
      vertex 33.3992 8.03838 35
      vertex 45 0 35
    endloop
  endfacet
  facet normal 0 0 1
    outer loop
      vertex 40.7596 16.213 35
      vertex 40.049 14.0259 35
      vertex 45 0 35
    endloop
  endfacet
  facet normal 0 0 1
    outer loop
      vertex 45 31.5 35
      vertex 37.3604 26.6746 35
      vertex 38.8992 24.9656 35
    endloop
  endfacet
  facet normal 0 0 1
    outer loop
      vertex 41 18.5 35
      vertex 40.7596 16.213 35
      vertex 45 0 35
    endloop
  endfacet
  facet normal 0 0 1
    outer loop
      vertex 45 31.5 35
      vertex 38.8992 24.9656 35
      vertex 40.049 22.9741 35
    endloop
  endfacet
  facet normal 0 0 1
    outer loop
      vertex 45 31.5 35
      vertex 40.7596 20.787 35
      vertex 45 0 35
    endloop
  endfacet
  facet normal 0 0 1
    outer loop
      vertex 45 31.5 35
      vertex 40.049 22.9741 35
      vertex 40.7596 20.787 35
    endloop
  endfacet
  facet normal 0 0 1
    outer loop
      vertex 40.049 14.0259 35
      vertex 38.8992 12.0344 35
      vertex 45 0 35
    endloop
  endfacet
  facet normal 0 0 1
    outer loop
      vertex 38.8992 12.0344 35
      vertex 37.3604 10.3254 35
      vertex 45 0 35
    endloop
  endfacet
  facet normal 0 0 1
    outer loop
      vertex 37.3604 10.3254 35
      vertex 35.5 8.97372 35
      vertex 45 0 35
    endloop
  endfacet
  facet normal 0 0 1
    outer loop
      vertex 28.8502 29.4397 35
      vertex 31.1498 29.4397 35
      vertex 45 31.5 35
    endloop
  endfacet
  facet normal 0 0 1
    outer loop
      vertex 31.1498 29.4397 35
      vertex 33.3992 28.9616 35
      vertex 45 31.5 35
    endloop
  endfacet
  facet normal 0 0 1
    outer loop
      vertex 28.8502 7.56026 35
      vertex 0 0 35
      vertex 31.1498 7.56026 35
    endloop
  endfacet
  facet normal 0 0 1
    outer loop
      vertex 26.6008 8.03838 35
      vertex 0 0 35
      vertex 28.8502 7.56026 35
    endloop
  endfacet
  facet normal 0 0 1
    outer loop
      vertex 24.5 8.97372 35
      vertex 0 0 35
      vertex 26.6008 8.03838 35
    endloop
  endfacet
  facet normal 0 0 1
    outer loop
      vertex 22.6396 10.3254 35
      vertex 0 0 35
      vertex 24.5 8.97372 35
    endloop
  endfacet
  facet normal 0 0 1
    outer loop
      vertex 21.1008 12.0344 35
      vertex 0 0 35
      vertex 22.6396 10.3254 35
    endloop
  endfacet
  facet normal 0 0 1
    outer loop
      vertex 19.951 14.0259 35
      vertex 0 0 35
      vertex 21.1008 12.0344 35
    endloop
  endfacet
  facet normal 0 0 1
    outer loop
      vertex 19.2404 16.213 35
      vertex 0 0 35
      vertex 19.951 14.0259 35
    endloop
  endfacet
  facet normal 0 0 1
    outer loop
      vertex 19.2404 16.213 35
      vertex 19 18.5 35
      vertex 0 31.5 35
    endloop
  endfacet
  facet normal 9.22407e-017 0.909632 -0.415415
    outer loop
      vertex 19 9.7816 15.0956
      vertex 19 9.03257 13.4554
      vertex 0 9.7816 15.0956
    endloop
  endfacet
  facet normal 9.22407e-017 0.909632 -0.415415
    outer loop
      vertex 0 9.7816 15.0956
      vertex 19 9.03257 13.4554
      vertex 0 9.03257 13.4554
    endloop
  endfacet
  facet normal -3.16003e-017 0.989821 0.142315
    outer loop
      vertex 19 9.28918 11.6707
      vertex 0 9.28918 11.6707
      vertex 19 9.03257 13.4554
    endloop
  endfacet
  facet normal -3.16003e-017 0.989821 0.142315
    outer loop
      vertex 19 9.03257 13.4554
      vertex 0 9.28918 11.6707
      vertex 0 9.03257 13.4554
    endloop
  endfacet
  facet normal 1.86796e-016 0.540641 -0.841253
    outer loop
      vertex 19 11.2985 16.0704
      vertex 19 9.7816 15.0956
      vertex 0 11.2985 16.0704
    endloop
  endfacet
  facet normal 1.86796e-016 0.540641 -0.841253
    outer loop
      vertex 0 11.2985 16.0704
      vertex 19 9.7816 15.0956
      vertex 0 9.7816 15.0956
    endloop
  endfacet
  facet normal 2.22045e-016 0 -1
    outer loop
      vertex 19 13.1015 16.0704
      vertex 19 11.2985 16.0704
      vertex 0 13.1015 16.0704
    endloop
  endfacet
  facet normal 2.22045e-016 0 -1
    outer loop
      vertex 0 13.1015 16.0704
      vertex 19 11.2985 16.0704
      vertex 0 11.2985 16.0704
    endloop
  endfacet
  facet normal 1.86796e-016 -0.540641 -0.841253
    outer loop
      vertex 19 14.6184 15.0956
      vertex 19 13.1015 16.0704
      vertex 0 14.6184 15.0956
    endloop
  endfacet
  facet normal 1.86796e-016 -0.540641 -0.841253
    outer loop
      vertex 0 14.6184 15.0956
      vertex 19 13.1015 16.0704
      vertex 0 13.1015 16.0704
    endloop
  endfacet
  facet normal 9.22407e-017 -0.909632 -0.415415
    outer loop
      vertex 0 15.3674 13.4554
      vertex 19 15.3674 13.4554
      vertex 19 14.6184 15.0956
    endloop
  endfacet
  facet normal 9.22407e-017 -0.909632 -0.415415
    outer loop
      vertex 0 14.6184 15.0956
      vertex 0 15.3674 13.4554
      vertex 19 14.6184 15.0956
    endloop
  endfacet
  facet normal -3.16003e-017 -0.989821 0.142315
    outer loop
      vertex 19 15.1108 11.6707
      vertex 19 15.3674 13.4554
      vertex 0 15.3674 13.4554
    endloop
  endfacet
  facet normal -3.16003e-017 -0.989821 0.142315
    outer loop
      vertex 0 15.1108 11.6707
      vertex 19 15.1108 11.6707
      vertex 0 15.3674 13.4554
    endloop
  endfacet
  facet normal -1.45408e-016 -0.75575 0.654861
    outer loop
      vertex 19 13.9301 10.308
      vertex 19 15.1108 11.6707
      vertex 0 15.1108 11.6707
    endloop
  endfacet
  facet normal -1.45408e-016 -0.75575 0.654861
    outer loop
      vertex 0 13.9301 10.308
      vertex 19 13.9301 10.308
      vertex 0 15.1108 11.6707
    endloop
  endfacet
  facet normal -2.1305e-016 -0.281733 0.959493
    outer loop
      vertex 45 12.2 9.8
      vertex 45 13.9301 10.308
      vertex 41 13.9301 10.308
    endloop
  endfacet
  facet normal -2.1305e-016 -0.281733 0.959493
    outer loop
      vertex 19 12.8811 10
      vertex 45 12.2 9.8
      vertex 41 12.8811 10
    endloop
  endfacet
  facet normal -2.1305e-016 -0.281733 0.959493
    outer loop
      vertex 41 12.8811 10
      vertex 45 12.2 9.8
      vertex 41 13.9301 10.308
    endloop
  endfacet
  facet normal -2.1305e-016 -0.281733 0.959493
    outer loop
      vertex 0 12.2 9.8
      vertex 45 12.2 9.8
      vertex 19 12.8811 10
    endloop
  endfacet
  facet normal -2.1305e-016 -0.281733 0.959493
    outer loop
      vertex 0 13.9301 10.308
      vertex 19 12.8811 10
      vertex 19 13.9301 10.308
    endloop
  endfacet
  facet normal -2.1305e-016 -0.281733 0.959493
    outer loop
      vertex 0 12.2 9.8
      vertex 19 12.8811 10
      vertex 0 13.9301 10.308
    endloop
  endfacet
  facet normal -2.1305e-016 0.281733 0.959493
    outer loop
      vertex 45 12.2 9.8
      vertex 19 11.5189 10
      vertex 41 11.5189 10
    endloop
  endfacet
  facet normal -2.1305e-016 0.281733 0.959493
    outer loop
      vertex 19 10.4699 10.308
      vertex 19 11.5189 10
      vertex 0 12.2 9.8
    endloop
  endfacet
  facet normal -2.1305e-016 0.281733 0.959493
    outer loop
      vertex 41 10.4699 10.308
      vertex 45 10.4699 10.308
      vertex 41 11.5189 10
    endloop
  endfacet
  facet normal -2.1305e-016 0.281733 0.959493
    outer loop
      vertex 45 10.4699 10.308
      vertex 45 12.2 9.8
      vertex 41 11.5189 10
    endloop
  endfacet
  facet normal -2.1305e-016 0.281733 0.959493
    outer loop
      vertex 45 12.2 9.8
      vertex 0 12.2 9.8
      vertex 19 11.5189 10
    endloop
  endfacet
  facet normal -2.1305e-016 0.281733 0.959493
    outer loop
      vertex 0 12.2 9.8
      vertex 0 10.4699 10.308
      vertex 19 10.4699 10.308
    endloop
  endfacet
  facet normal -1.45408e-016 0.75575 0.654861
    outer loop
      vertex 19 10.4699 10.308
      vertex 0 10.4699 10.308
      vertex 19 9.28918 11.6707
    endloop
  endfacet
  facet normal -1.45408e-016 0.75575 0.654861
    outer loop
      vertex 19 9.28918 11.6707
      vertex 0 10.4699 10.308
      vertex 0 9.28918 11.6707
    endloop
  endfacet
  facet normal 1 0 0
    outer loop
      vertex 45 12.2 9.8
      vertex 45 0 0
      vertex 45 31.5 0
    endloop
  endfacet
  facet normal 1 0 0
    outer loop
      vertex 45 31.5 35
      vertex 45 0 35
      vertex 45 31.5 0
    endloop
  endfacet
  facet normal 1 0 0
    outer loop
      vertex 45 0 35
      vertex 45 0 0
      vertex 45 9.28918 11.6707
    endloop
  endfacet
  facet normal 1 0 0
    outer loop
      vertex 45 13.9301 10.308
      vertex 45 12.2 9.8
      vertex 45 31.5 0
    endloop
  endfacet
  facet normal 1 0 0
    outer loop
      vertex 45 0 35
      vertex 45 9.28918 11.6707
      vertex 45 9.03257 13.4554
    endloop
  endfacet
  facet normal 1 0 0
    outer loop
      vertex 45 0 35
      vertex 45 9.03257 13.4554
      vertex 45 9.7816 15.0956
    endloop
  endfacet
  facet normal 1 0 0
    outer loop
      vertex 45 0 35
      vertex 45 9.7816 15.0956
      vertex 45 11.2985 16.0704
    endloop
  endfacet
  facet normal 1 0 0
    outer loop
      vertex 45 15.3674 13.4554
      vertex 45 15.1108 11.6707
      vertex 45 31.5 0
    endloop
  endfacet
  facet normal 1 0 0
    outer loop
      vertex 45 0 35
      vertex 45 11.2985 16.0704
      vertex 45 13.1015 16.0704
    endloop
  endfacet
  facet normal 1 0 0
    outer loop
      vertex 45 0 35
      vertex 45 14.6184 15.0956
      vertex 45 31.5 0
    endloop
  endfacet
  facet normal 1 0 0
    outer loop
      vertex 45 0 35
      vertex 45 13.1015 16.0704
      vertex 45 14.6184 15.0956
    endloop
  endfacet
  facet normal 1 0 0
    outer loop
      vertex 45 10.4699 10.308
      vertex 45 0 0
      vertex 45 12.2 9.8
    endloop
  endfacet
  facet normal 1 0 0
    outer loop
      vertex 45 9.28918 11.6707
      vertex 45 0 0
      vertex 45 10.4699 10.308
    endloop
  endfacet
  facet normal 1 0 0
    outer loop
      vertex 45 14.6184 15.0956
      vertex 45 15.3674 13.4554
      vertex 45 31.5 0
    endloop
  endfacet
  facet normal 1 0 0
    outer loop
      vertex 45 15.1108 11.6707
      vertex 45 13.9301 10.308
      vertex 45 31.5 0
    endloop
  endfacet
  facet normal 1 0 0
    outer loop
      vertex 19 0 17.5
      vertex 19 10.4699 10.308
      vertex 19 9.28918 11.6707
    endloop
  endfacet
  facet normal 1 0 0
    outer loop
      vertex 19 9.7816 15.0956
      vertex 19 0 17.5
      vertex 19 9.03257 13.4554
    endloop
  endfacet
  facet normal 1 0 0
    outer loop
      vertex 19 9.03257 13.4554
      vertex 19 0 17.5
      vertex 19 9.28918 11.6707
    endloop
  endfacet
  facet normal 1 0 0
    outer loop
      vertex 19 11.5189 10
      vertex 19 10.4699 10.308
      vertex 19 0 10
    endloop
  endfacet
  facet normal 1 0 0
    outer loop
      vertex 19 11.2985 16.0704
      vertex 19 0 17.5
      vertex 19 9.7816 15.0956
    endloop
  endfacet
  facet normal 1 0 0
    outer loop
      vertex 19 13.1015 16.0704
      vertex 19 31.5 17.5
      vertex 19 11.2985 16.0704
    endloop
  endfacet
  facet normal 1 0 0
    outer loop
      vertex 19 14.6184 15.0956
      vertex 19 31.5 10
      vertex 19 13.1015 16.0704
    endloop
  endfacet
  facet normal 1 0 0
    outer loop
      vertex 19 15.3674 13.4554
      vertex 19 31.5 10
      vertex 19 14.6184 15.0956
    endloop
  endfacet
  facet normal 1 0 0
    outer loop
      vertex 19 15.1108 11.6707
      vertex 19 31.5 10
      vertex 19 15.3674 13.4554
    endloop
  endfacet
  facet normal 1 0 0
    outer loop
      vertex 19 13.9301 10.308
      vertex 19 31.5 10
      vertex 19 15.1108 11.6707
    endloop
  endfacet
  facet normal 1 0 0
    outer loop
      vertex 19 12.8811 10
      vertex 19 31.5 10
      vertex 19 13.9301 10.308
    endloop
  endfacet
  facet normal 1 0 0
    outer loop
      vertex 19 31.5 10
      vertex 19 31.5 17.5
      vertex 19 13.1015 16.0704
    endloop
  endfacet
  facet normal 1 0 0
    outer loop
      vertex 19 31.5 17.5
      vertex 19 0 17.5
      vertex 19 11.2985 16.0704
    endloop
  endfacet
  facet normal 1 0 0
    outer loop
      vertex 19 0 17.5
      vertex 19 0 10
      vertex 19 10.4699 10.308
    endloop
  endfacet
  facet normal 0 0 1
    outer loop
      vertex 41 0 10
      vertex 41 11.5189 10
      vertex 19 11.5189 10
    endloop
  endfacet
  facet normal 0 0 1
    outer loop
      vertex 19 0 10
      vertex 41 0 10
      vertex 19 11.5189 10
    endloop
  endfacet
  facet normal -1 0 0
    outer loop
      vertex 41 9.7816 15.0956
      vertex 41 0 17.5
      vertex 41 11.2985 16.0704
    endloop
  endfacet
  facet normal -1 0 0
    outer loop
      vertex 41 13.9301 10.308
      vertex 41 31.5 10
      vertex 41 12.8811 10
    endloop
  endfacet
  facet normal -1 0 0
    outer loop
      vertex 41 15.1108 11.6707
      vertex 41 31.5 10
      vertex 41 13.9301 10.308
    endloop
  endfacet
  facet normal -1 0 0
    outer loop
      vertex 41 15.3674 13.4554
      vertex 41 31.5 10
      vertex 41 15.1108 11.6707
    endloop
  endfacet
  facet normal -1 0 0
    outer loop
      vertex 41 31.5 17.5
      vertex 41 31.5 10
      vertex 41 14.6184 15.0956
    endloop
  endfacet
  facet normal -1 0 0
    outer loop
      vertex 41 31.5 17.5
      vertex 41 14.6184 15.0956
      vertex 41 13.1015 16.0704
    endloop
  endfacet
  facet normal -1 0 0
    outer loop
      vertex 41 31.5 17.5
      vertex 41 13.1015 16.0704
      vertex 41 0 17.5
    endloop
  endfacet
  facet normal -1 0 0
    outer loop
      vertex 41 13.1015 16.0704
      vertex 41 11.2985 16.0704
      vertex 41 0 17.5
    endloop
  endfacet
  facet normal -1 0 0
    outer loop
      vertex 41 9.28918 11.6707
      vertex 41 0 17.5
      vertex 41 9.03257 13.4554
    endloop
  endfacet
  facet normal -1 0 0
    outer loop
      vertex 41 0 17.5
      vertex 41 9.28918 11.6707
      vertex 41 10.4699 10.308
    endloop
  endfacet
  facet normal -1 0 0
    outer loop
      vertex 41 10.4699 10.308
      vertex 41 11.5189 10
      vertex 41 0 10
    endloop
  endfacet
  facet normal -1 0 0
    outer loop
      vertex 41 10.4699 10.308
      vertex 41 0 10
      vertex 41 0 17.5
    endloop
  endfacet
  facet normal -1 0 0
    outer loop
      vertex 41 14.6184 15.0956
      vertex 41 31.5 10
      vertex 41 15.3674 13.4554
    endloop
  endfacet
  facet normal -1 0 0
    outer loop
      vertex 41 9.03257 13.4554
      vertex 41 0 17.5
      vertex 41 9.7816 15.0956
    endloop
  endfacet
  facet normal 0 0 -1
    outer loop
      vertex 41 31.5 17.5
      vertex 41 0 17.5
      vertex 19 31.5 17.5
    endloop
  endfacet
  facet normal 0 0 -1
    outer loop
      vertex 19 31.5 17.5
      vertex 41 0 17.5
      vertex 19 0 17.5
    endloop
  endfacet
  facet normal 0.994522 -0.104528 0
    outer loop
      vertex 19.2404 20.787 0
      vertex 19.2404 20.787 7
      vertex 19 18.5 7
    endloop
  endfacet
  facet normal 0.994522 -0.104528 0
    outer loop
      vertex 19 18.5 0
      vertex 19.2404 20.787 0
      vertex 19 18.5 7
    endloop
  endfacet
  facet normal 0.994522 0.104528 0
    outer loop
      vertex 19 18.5 7
      vertex 19.2404 16.213 7
      vertex 19.2404 16.213 0
    endloop
  endfacet
  facet normal 0.994522 0.104528 0
    outer loop
      vertex 19 18.5 0
      vertex 19 18.5 7
      vertex 19.2404 16.213 0
    endloop
  endfacet
  facet normal 0.951056 -0.309017 0
    outer loop
      vertex 19.951 22.9741 0
      vertex 19.951 22.9741 7
      vertex 19.2404 20.787 7
    endloop
  endfacet
  facet normal 0.951056 -0.309017 0
    outer loop
      vertex 19.2404 20.787 0
      vertex 19.951 22.9741 0
      vertex 19.2404 20.787 7
    endloop
  endfacet
  facet normal 0.866025 -0.5 0
    outer loop
      vertex 21.1008 24.9656 0
      vertex 21.1008 24.9656 7
      vertex 19.951 22.9741 7
    endloop
  endfacet
  facet normal 0.866025 -0.5 0
    outer loop
      vertex 19.951 22.9741 0
      vertex 21.1008 24.9656 0
      vertex 19.951 22.9741 7
    endloop
  endfacet
  facet normal 0.743145 -0.669131 0
    outer loop
      vertex 22.6396 26.6746 0
      vertex 22.6396 26.6746 7
      vertex 21.1008 24.9656 7
    endloop
  endfacet
  facet normal 0.743145 -0.669131 0
    outer loop
      vertex 21.1008 24.9656 0
      vertex 22.6396 26.6746 0
      vertex 21.1008 24.9656 7
    endloop
  endfacet
  facet normal 0.587785 -0.809017 0
    outer loop
      vertex 24.5 28.0263 0
      vertex 24.5 28.0263 7
      vertex 22.6396 26.6746 7
    endloop
  endfacet
  facet normal 0.587785 -0.809017 0
    outer loop
      vertex 22.6396 26.6746 0
      vertex 24.5 28.0263 0
      vertex 22.6396 26.6746 7
    endloop
  endfacet
  facet normal 0.406737 -0.913545 0
    outer loop
      vertex 26.6008 28.9616 0
      vertex 26.6008 28.9616 7
      vertex 24.5 28.0263 7
    endloop
  endfacet
  facet normal 0.406737 -0.913545 0
    outer loop
      vertex 24.5 28.0263 0
      vertex 26.6008 28.9616 0
      vertex 24.5 28.0263 7
    endloop
  endfacet
  facet normal 0.207912 -0.978148 0
    outer loop
      vertex 28.8502 29.4397 0
      vertex 28.8502 29.4397 7
      vertex 26.6008 28.9616 7
    endloop
  endfacet
  facet normal 0.207912 -0.978148 0
    outer loop
      vertex 26.6008 28.9616 0
      vertex 28.8502 29.4397 0
      vertex 26.6008 28.9616 7
    endloop
  endfacet
  facet normal 0 -1 0
    outer loop
      vertex 31.1498 29.4397 0
      vertex 31.1498 29.4397 7
      vertex 28.8502 29.4397 7
    endloop
  endfacet
  facet normal 0 -1 0
    outer loop
      vertex 28.8502 29.4397 0
      vertex 31.1498 29.4397 0
      vertex 28.8502 29.4397 7
    endloop
  endfacet
  facet normal -0.207912 -0.978148 0
    outer loop
      vertex 33.3992 28.9616 0
      vertex 33.3992 28.9616 7
      vertex 31.1498 29.4397 7
    endloop
  endfacet
  facet normal -0.207912 -0.978148 0
    outer loop
      vertex 31.1498 29.4397 0
      vertex 33.3992 28.9616 0
      vertex 31.1498 29.4397 7
    endloop
  endfacet
  facet normal -0.406737 -0.913545 0
    outer loop
      vertex 35.5 28.0263 0
      vertex 35.5 28.0263 7
      vertex 33.3992 28.9616 7
    endloop
  endfacet
  facet normal -0.406737 -0.913545 0
    outer loop
      vertex 33.3992 28.9616 0
      vertex 35.5 28.0263 0
      vertex 33.3992 28.9616 7
    endloop
  endfacet
  facet normal -0.587785 -0.809017 0
    outer loop
      vertex 37.3604 26.6746 0
      vertex 37.3604 26.6746 7
      vertex 35.5 28.0263 7
    endloop
  endfacet
  facet normal -0.587785 -0.809017 0
    outer loop
      vertex 35.5 28.0263 0
      vertex 37.3604 26.6746 0
      vertex 35.5 28.0263 7
    endloop
  endfacet
  facet normal -0.743145 -0.669131 0
    outer loop
      vertex 38.8992 24.9656 7
      vertex 37.3604 26.6746 7
      vertex 38.8992 24.9656 0
    endloop
  endfacet
  facet normal -0.743145 -0.669131 0
    outer loop
      vertex 38.8992 24.9656 0
      vertex 37.3604 26.6746 7
      vertex 37.3604 26.6746 0
    endloop
  endfacet
  facet normal -0.866025 -0.5 0
    outer loop
      vertex 40.049 22.9741 7
      vertex 38.8992 24.9656 7
      vertex 40.049 22.9741 0
    endloop
  endfacet
  facet normal -0.866025 -0.5 0
    outer loop
      vertex 40.049 22.9741 0
      vertex 38.8992 24.9656 7
      vertex 38.8992 24.9656 0
    endloop
  endfacet
  facet normal -0.951056 -0.309017 0
    outer loop
      vertex 40.7596 20.787 7
      vertex 40.049 22.9741 7
      vertex 40.7596 20.787 0
    endloop
  endfacet
  facet normal -0.951056 -0.309017 0
    outer loop
      vertex 40.7596 20.787 0
      vertex 40.049 22.9741 7
      vertex 40.049 22.9741 0
    endloop
  endfacet
  facet normal -0.994522 -0.104528 0
    outer loop
      vertex 41 18.5 7
      vertex 40.7596 20.787 7
      vertex 41 18.5 0
    endloop
  endfacet
  facet normal -0.994522 -0.104528 0
    outer loop
      vertex 41 18.5 0
      vertex 40.7596 20.787 7
      vertex 40.7596 20.787 0
    endloop
  endfacet
  facet normal -0.994522 0.104528 0
    outer loop
      vertex 41 18.5 7
      vertex 41 18.5 0
      vertex 40.7596 16.213 7
    endloop
  endfacet
  facet normal -0.994522 0.104528 0
    outer loop
      vertex 40.7596 16.213 7
      vertex 41 18.5 0
      vertex 40.7596 16.213 0
    endloop
  endfacet
  facet normal -0.951056 0.309017 0
    outer loop
      vertex 40.7596 16.213 7
      vertex 40.7596 16.213 0
      vertex 40.049 14.0259 7
    endloop
  endfacet
  facet normal -0.951056 0.309017 0
    outer loop
      vertex 40.049 14.0259 7
      vertex 40.7596 16.213 0
      vertex 40.049 14.0259 0
    endloop
  endfacet
  facet normal -0.866025 0.5 0
    outer loop
      vertex 40.049 14.0259 7
      vertex 40.049 14.0259 0
      vertex 38.8992 12.0344 7
    endloop
  endfacet
  facet normal -0.866025 0.5 0
    outer loop
      vertex 38.8992 12.0344 7
      vertex 40.049 14.0259 0
      vertex 38.8992 12.0344 0
    endloop
  endfacet
  facet normal -0.743145 0.669131 0
    outer loop
      vertex 38.8992 12.0344 7
      vertex 38.8992 12.0344 0
      vertex 37.3604 10.3254 7
    endloop
  endfacet
  facet normal -0.743145 0.669131 0
    outer loop
      vertex 37.3604 10.3254 7
      vertex 38.8992 12.0344 0
      vertex 37.3604 10.3254 0
    endloop
  endfacet
  facet normal -0.587785 0.809017 0
    outer loop
      vertex 37.3604 10.3254 7
      vertex 37.3604 10.3254 0
      vertex 35.5 8.97372 7
    endloop
  endfacet
  facet normal -0.587785 0.809017 0
    outer loop
      vertex 35.5 8.97372 7
      vertex 37.3604 10.3254 0
      vertex 35.5 8.97372 0
    endloop
  endfacet
  facet normal -0.406737 0.913545 0
    outer loop
      vertex 35.5 8.97372 7
      vertex 35.5 8.97372 0
      vertex 33.3992 8.03838 7
    endloop
  endfacet
  facet normal -0.406737 0.913545 0
    outer loop
      vertex 33.3992 8.03838 7
      vertex 35.5 8.97372 0
      vertex 33.3992 8.03838 0
    endloop
  endfacet
  facet normal -0.207912 0.978148 0
    outer loop
      vertex 33.3992 8.03838 7
      vertex 33.3992 8.03838 0
      vertex 31.1498 7.56026 7
    endloop
  endfacet
  facet normal -0.207912 0.978148 0
    outer loop
      vertex 31.1498 7.56026 7
      vertex 33.3992 8.03838 0
      vertex 31.1498 7.56026 0
    endloop
  endfacet
  facet normal 0 1 0
    outer loop
      vertex 31.1498 7.56026 7
      vertex 31.1498 7.56026 0
      vertex 28.8502 7.56026 7
    endloop
  endfacet
  facet normal 0 1 0
    outer loop
      vertex 28.8502 7.56026 7
      vertex 31.1498 7.56026 0
      vertex 28.8502 7.56026 0
    endloop
  endfacet
  facet normal 0.207912 0.978148 0
    outer loop
      vertex 28.8502 7.56026 7
      vertex 28.8502 7.56026 0
      vertex 26.6008 8.03838 7
    endloop
  endfacet
  facet normal 0.207912 0.978148 0
    outer loop
      vertex 26.6008 8.03838 7
      vertex 28.8502 7.56026 0
      vertex 26.6008 8.03838 0
    endloop
  endfacet
  facet normal 0.406737 0.913545 0
    outer loop
      vertex 26.6008 8.03838 7
      vertex 26.6008 8.03838 0
      vertex 24.5 8.97372 7
    endloop
  endfacet
  facet normal 0.406737 0.913545 0
    outer loop
      vertex 24.5 8.97372 7
      vertex 26.6008 8.03838 0
      vertex 24.5 8.97372 0
    endloop
  endfacet
  facet normal 0.587785 0.809017 0
    outer loop
      vertex 24.5 8.97372 7
      vertex 24.5 8.97372 0
      vertex 22.6396 10.3254 7
    endloop
  endfacet
  facet normal 0.587785 0.809017 0
    outer loop
      vertex 22.6396 10.3254 7
      vertex 24.5 8.97372 0
      vertex 22.6396 10.3254 0
    endloop
  endfacet
  facet normal 0.743145 0.669131 0
    outer loop
      vertex 21.1008 12.0344 7
      vertex 22.6396 10.3254 7
      vertex 22.6396 10.3254 0
    endloop
  endfacet
  facet normal 0.743145 0.669131 0
    outer loop
      vertex 21.1008 12.0344 0
      vertex 21.1008 12.0344 7
      vertex 22.6396 10.3254 0
    endloop
  endfacet
  facet normal 0.866025 0.5 0
    outer loop
      vertex 19.951 14.0259 7
      vertex 21.1008 12.0344 7
      vertex 21.1008 12.0344 0
    endloop
  endfacet
  facet normal 0.866025 0.5 0
    outer loop
      vertex 19.951 14.0259 0
      vertex 19.951 14.0259 7
      vertex 21.1008 12.0344 0
    endloop
  endfacet
  facet normal 0.951056 0.309017 0
    outer loop
      vertex 19.2404 16.213 7
      vertex 19.951 14.0259 7
      vertex 19.951 14.0259 0
    endloop
  endfacet
  facet normal 0.951056 0.309017 0
    outer loop
      vertex 19.2404 16.213 0
      vertex 19.2404 16.213 7
      vertex 19.951 14.0259 0
    endloop
  endfacet
  facet normal 0 0 1
    outer loop
      vertex 30.9346 22.5947 10
      vertex 41 31.5 10
      vertex 19 31.5 10
    endloop
  endfacet
  facet normal 0 0 1
    outer loop
      vertex 33.7841 20.3223 10
      vertex 34.2 18.5 10
      vertex 41 12.8811 10
    endloop
  endfacet
  facet normal 0 0 1
    outer loop
      vertex 19 12.8811 10
      vertex 25.8 18.5 10
      vertex 19 31.5 10
    endloop
  endfacet
  facet normal 0 0 1
    outer loop
      vertex 25.8 18.5 10
      vertex 26.2159 20.3223 10
      vertex 19 31.5 10
    endloop
  endfacet
  facet normal 0 0 1
    outer loop
      vertex 29.0654 14.4053 10
      vertex 27.3813 15.2163 10
      vertex 19 12.8811 10
    endloop
  endfacet
  facet normal 0 0 1
    outer loop
      vertex 26.2159 20.3223 10
      vertex 27.3813 21.7837 10
      vertex 19 31.5 10
    endloop
  endfacet
  facet normal 0 0 1
    outer loop
      vertex 27.3813 21.7837 10
      vertex 29.0654 22.5947 10
      vertex 19 31.5 10
    endloop
  endfacet
  facet normal 0 0 1
    outer loop
      vertex 32.6187 21.7837 10
      vertex 41 31.5 10
      vertex 30.9346 22.5947 10
    endloop
  endfacet
  facet normal 0 0 1
    outer loop
      vertex 41 12.8811 10
      vertex 41 31.5 10
      vertex 32.6187 21.7837 10
    endloop
  endfacet
  facet normal 0 0 1
    outer loop
      vertex 41 12.8811 10
      vertex 32.6187 21.7837 10
      vertex 33.7841 20.3223 10
    endloop
  endfacet
  facet normal 0 0 1
    outer loop
      vertex 34.2 18.5 10
      vertex 33.7841 16.6777 10
      vertex 41 12.8811 10
    endloop
  endfacet
  facet normal 0 0 1
    outer loop
      vertex 33.7841 16.6777 10
      vertex 32.6187 15.2163 10
      vertex 41 12.8811 10
    endloop
  endfacet
  facet normal 0 0 1
    outer loop
      vertex 30.9346 14.4053 10
      vertex 41 12.8811 10
      vertex 32.6187 15.2163 10
    endloop
  endfacet
  facet normal 0 0 1
    outer loop
      vertex 19 12.8811 10
      vertex 41 12.8811 10
      vertex 30.9346 14.4053 10
    endloop
  endfacet
  facet normal 0 0 1
    outer loop
      vertex 19 12.8811 10
      vertex 30.9346 14.4053 10
      vertex 29.0654 14.4053 10
    endloop
  endfacet
  facet normal 0 0 1
    outer loop
      vertex 19 12.8811 10
      vertex 26.2159 16.6777 10
      vertex 25.8 18.5 10
    endloop
  endfacet
  facet normal 0 0 1
    outer loop
      vertex 19 12.8811 10
      vertex 27.3813 15.2163 10
      vertex 26.2159 16.6777 10
    endloop
  endfacet
  facet normal 0 0 1
    outer loop
      vertex 29.0654 22.5947 10
      vertex 30.9346 22.5947 10
      vertex 19 31.5 10
    endloop
  endfacet
  facet normal 0.994522 0.104528 0
    outer loop
      vertex 19 18.5 35
      vertex 19.2404 16.213 35
      vertex 19.2404 16.213 28
    endloop
  endfacet
  facet normal 0.994522 0.104528 0
    outer loop
      vertex 19 18.5 28
      vertex 19 18.5 35
      vertex 19.2404 16.213 28
    endloop
  endfacet
  facet normal 0.951056 0.309017 0
    outer loop
      vertex 19.2404 16.213 35
      vertex 19.951 14.0259 35
      vertex 19.951 14.0259 28
    endloop
  endfacet
  facet normal 0.951056 0.309017 0
    outer loop
      vertex 19.2404 16.213 28
      vertex 19.2404 16.213 35
      vertex 19.951 14.0259 28
    endloop
  endfacet
  facet normal 0.866025 0.5 0
    outer loop
      vertex 19.951 14.0259 35
      vertex 21.1008 12.0344 35
      vertex 21.1008 12.0344 28
    endloop
  endfacet
  facet normal 0.866025 0.5 0
    outer loop
      vertex 19.951 14.0259 28
      vertex 19.951 14.0259 35
      vertex 21.1008 12.0344 28
    endloop
  endfacet
  facet normal 0.743145 0.669131 0
    outer loop
      vertex 21.1008 12.0344 35
      vertex 22.6396 10.3254 35
      vertex 22.6396 10.3254 28
    endloop
  endfacet
  facet normal 0.743145 0.669131 0
    outer loop
      vertex 21.1008 12.0344 28
      vertex 21.1008 12.0344 35
      vertex 22.6396 10.3254 28
    endloop
  endfacet
  facet normal 0.587785 0.809017 0
    outer loop
      vertex 24.5 8.97372 35
      vertex 24.5 8.97372 28
      vertex 22.6396 10.3254 35
    endloop
  endfacet
  facet normal 0.587785 0.809017 0
    outer loop
      vertex 22.6396 10.3254 35
      vertex 24.5 8.97372 28
      vertex 22.6396 10.3254 28
    endloop
  endfacet
  facet normal 0.406737 0.913545 0
    outer loop
      vertex 26.6008 8.03838 35
      vertex 26.6008 8.03838 28
      vertex 24.5 8.97372 35
    endloop
  endfacet
  facet normal 0.406737 0.913545 0
    outer loop
      vertex 24.5 8.97372 35
      vertex 26.6008 8.03838 28
      vertex 24.5 8.97372 28
    endloop
  endfacet
  facet normal 0.207912 0.978148 0
    outer loop
      vertex 28.8502 7.56026 35
      vertex 28.8502 7.56026 28
      vertex 26.6008 8.03838 35
    endloop
  endfacet
  facet normal 0.207912 0.978148 0
    outer loop
      vertex 26.6008 8.03838 35
      vertex 28.8502 7.56026 28
      vertex 26.6008 8.03838 28
    endloop
  endfacet
  facet normal 0 1 0
    outer loop
      vertex 31.1498 7.56026 35
      vertex 31.1498 7.56026 28
      vertex 28.8502 7.56026 35
    endloop
  endfacet
  facet normal 0 1 0
    outer loop
      vertex 28.8502 7.56026 35
      vertex 31.1498 7.56026 28
      vertex 28.8502 7.56026 28
    endloop
  endfacet
  facet normal -0.207912 0.978148 0
    outer loop
      vertex 33.3992 8.03838 35
      vertex 33.3992 8.03838 28
      vertex 31.1498 7.56026 35
    endloop
  endfacet
  facet normal -0.207912 0.978148 0
    outer loop
      vertex 31.1498 7.56026 35
      vertex 33.3992 8.03838 28
      vertex 31.1498 7.56026 28
    endloop
  endfacet
  facet normal -0.406737 0.913545 0
    outer loop
      vertex 35.5 8.97372 35
      vertex 35.5 8.97372 28
      vertex 33.3992 8.03838 35
    endloop
  endfacet
  facet normal -0.406737 0.913545 0
    outer loop
      vertex 33.3992 8.03838 35
      vertex 35.5 8.97372 28
      vertex 33.3992 8.03838 28
    endloop
  endfacet
  facet normal -0.587785 0.809017 0
    outer loop
      vertex 37.3604 10.3254 35
      vertex 37.3604 10.3254 28
      vertex 35.5 8.97372 35
    endloop
  endfacet
  facet normal -0.587785 0.809017 0
    outer loop
      vertex 35.5 8.97372 35
      vertex 37.3604 10.3254 28
      vertex 35.5 8.97372 28
    endloop
  endfacet
  facet normal -0.743145 0.669131 0
    outer loop
      vertex 38.8992 12.0344 35
      vertex 38.8992 12.0344 28
      vertex 37.3604 10.3254 35
    endloop
  endfacet
  facet normal -0.743145 0.669131 0
    outer loop
      vertex 37.3604 10.3254 35
      vertex 38.8992 12.0344 28
      vertex 37.3604 10.3254 28
    endloop
  endfacet
  facet normal -0.866025 0.5 0
    outer loop
      vertex 40.049 14.0259 35
      vertex 40.049 14.0259 28
      vertex 38.8992 12.0344 35
    endloop
  endfacet
  facet normal -0.866025 0.5 0
    outer loop
      vertex 38.8992 12.0344 35
      vertex 40.049 14.0259 28
      vertex 38.8992 12.0344 28
    endloop
  endfacet
  facet normal -0.951056 0.309017 0
    outer loop
      vertex 40.7596 16.213 35
      vertex 40.7596 16.213 28
      vertex 40.049 14.0259 35
    endloop
  endfacet
  facet normal -0.951056 0.309017 0
    outer loop
      vertex 40.049 14.0259 35
      vertex 40.7596 16.213 28
      vertex 40.049 14.0259 28
    endloop
  endfacet
  facet normal -0.994522 0.104528 0
    outer loop
      vertex 41 18.5 35
      vertex 41 18.5 28
      vertex 40.7596 16.213 35
    endloop
  endfacet
  facet normal -0.994522 0.104528 0
    outer loop
      vertex 40.7596 16.213 35
      vertex 41 18.5 28
      vertex 40.7596 16.213 28
    endloop
  endfacet
  facet normal -0.994522 -0.104528 0
    outer loop
      vertex 41 18.5 35
      vertex 40.7596 20.787 35
      vertex 41 18.5 28
    endloop
  endfacet
  facet normal -0.994522 -0.104528 0
    outer loop
      vertex 41 18.5 28
      vertex 40.7596 20.787 35
      vertex 40.7596 20.787 28
    endloop
  endfacet
  facet normal -0.951056 -0.309017 0
    outer loop
      vertex 40.7596 20.787 35
      vertex 40.049 22.9741 35
      vertex 40.7596 20.787 28
    endloop
  endfacet
  facet normal -0.951056 -0.309017 0
    outer loop
      vertex 40.7596 20.787 28
      vertex 40.049 22.9741 35
      vertex 40.049 22.9741 28
    endloop
  endfacet
  facet normal -0.866025 -0.5 0
    outer loop
      vertex 40.049 22.9741 35
      vertex 38.8992 24.9656 35
      vertex 40.049 22.9741 28
    endloop
  endfacet
  facet normal -0.866025 -0.5 0
    outer loop
      vertex 40.049 22.9741 28
      vertex 38.8992 24.9656 35
      vertex 38.8992 24.9656 28
    endloop
  endfacet
  facet normal -0.743145 -0.669131 0
    outer loop
      vertex 38.8992 24.9656 35
      vertex 37.3604 26.6746 35
      vertex 38.8992 24.9656 28
    endloop
  endfacet
  facet normal -0.743145 -0.669131 0
    outer loop
      vertex 38.8992 24.9656 28
      vertex 37.3604 26.6746 35
      vertex 37.3604 26.6746 28
    endloop
  endfacet
  facet normal -0.587785 -0.809017 0
    outer loop
      vertex 37.3604 26.6746 28
      vertex 37.3604 26.6746 35
      vertex 35.5 28.0263 35
    endloop
  endfacet
  facet normal -0.587785 -0.809017 0
    outer loop
      vertex 35.5 28.0263 28
      vertex 37.3604 26.6746 28
      vertex 35.5 28.0263 35
    endloop
  endfacet
  facet normal -0.406737 -0.913545 0
    outer loop
      vertex 35.5 28.0263 28
      vertex 35.5 28.0263 35
      vertex 33.3992 28.9616 35
    endloop
  endfacet
  facet normal -0.406737 -0.913545 0
    outer loop
      vertex 33.3992 28.9616 28
      vertex 35.5 28.0263 28
      vertex 33.3992 28.9616 35
    endloop
  endfacet
  facet normal -0.207912 -0.978148 0
    outer loop
      vertex 33.3992 28.9616 28
      vertex 33.3992 28.9616 35
      vertex 31.1498 29.4397 35
    endloop
  endfacet
  facet normal -0.207912 -0.978148 0
    outer loop
      vertex 31.1498 29.4397 28
      vertex 33.3992 28.9616 28
      vertex 31.1498 29.4397 35
    endloop
  endfacet
  facet normal 0 -1 0
    outer loop
      vertex 31.1498 29.4397 28
      vertex 31.1498 29.4397 35
      vertex 28.8502 29.4397 35
    endloop
  endfacet
  facet normal 0 -1 0
    outer loop
      vertex 28.8502 29.4397 28
      vertex 31.1498 29.4397 28
      vertex 28.8502 29.4397 35
    endloop
  endfacet
  facet normal 0.207912 -0.978148 0
    outer loop
      vertex 28.8502 29.4397 28
      vertex 28.8502 29.4397 35
      vertex 26.6008 28.9616 35
    endloop
  endfacet
  facet normal 0.207912 -0.978148 0
    outer loop
      vertex 26.6008 28.9616 28
      vertex 28.8502 29.4397 28
      vertex 26.6008 28.9616 35
    endloop
  endfacet
  facet normal 0.406737 -0.913545 0
    outer loop
      vertex 26.6008 28.9616 28
      vertex 26.6008 28.9616 35
      vertex 24.5 28.0263 35
    endloop
  endfacet
  facet normal 0.406737 -0.913545 0
    outer loop
      vertex 24.5 28.0263 28
      vertex 26.6008 28.9616 28
      vertex 24.5 28.0263 35
    endloop
  endfacet
  facet normal 0.587785 -0.809017 0
    outer loop
      vertex 24.5 28.0263 28
      vertex 24.5 28.0263 35
      vertex 22.6396 26.6746 35
    endloop
  endfacet
  facet normal 0.587785 -0.809017 0
    outer loop
      vertex 22.6396 26.6746 28
      vertex 24.5 28.0263 28
      vertex 22.6396 26.6746 35
    endloop
  endfacet
  facet normal 0.743145 -0.669131 0
    outer loop
      vertex 22.6396 26.6746 28
      vertex 22.6396 26.6746 35
      vertex 21.1008 24.9656 35
    endloop
  endfacet
  facet normal 0.743145 -0.669131 0
    outer loop
      vertex 21.1008 24.9656 28
      vertex 22.6396 26.6746 28
      vertex 21.1008 24.9656 35
    endloop
  endfacet
  facet normal 0.866025 -0.5 0
    outer loop
      vertex 21.1008 24.9656 28
      vertex 21.1008 24.9656 35
      vertex 19.951 22.9741 35
    endloop
  endfacet
  facet normal 0.866025 -0.5 0
    outer loop
      vertex 19.951 22.9741 28
      vertex 21.1008 24.9656 28
      vertex 19.951 22.9741 35
    endloop
  endfacet
  facet normal 0.951056 -0.309017 0
    outer loop
      vertex 19.951 22.9741 28
      vertex 19.951 22.9741 35
      vertex 19.2404 20.787 35
    endloop
  endfacet
  facet normal 0.951056 -0.309017 0
    outer loop
      vertex 19.2404 20.787 28
      vertex 19.951 22.9741 28
      vertex 19.2404 20.787 35
    endloop
  endfacet
  facet normal 0.994522 -0.104528 0
    outer loop
      vertex 19.2404 20.787 28
      vertex 19.2404 20.787 35
      vertex 19 18.5 35
    endloop
  endfacet
  facet normal 0.994522 -0.104528 0
    outer loop
      vertex 19 18.5 28
      vertex 19.2404 20.787 28
      vertex 19 18.5 35
    endloop
  endfacet
  facet normal -1.45408e-016 -0.75575 0.654861
    outer loop
      vertex 45 13.9301 10.308
      vertex 45 15.1108 11.6707
      vertex 41 15.1108 11.6707
    endloop
  endfacet
  facet normal -1.45408e-016 -0.75575 0.654861
    outer loop
      vertex 41 13.9301 10.308
      vertex 45 13.9301 10.308
      vertex 41 15.1108 11.6707
    endloop
  endfacet
  facet normal -1.45408e-016 0.75575 0.654861
    outer loop
      vertex 45 10.4699 10.308
      vertex 41 10.4699 10.308
      vertex 45 9.28918 11.6707
    endloop
  endfacet
  facet normal -1.45408e-016 0.75575 0.654861
    outer loop
      vertex 45 9.28918 11.6707
      vertex 41 10.4699 10.308
      vertex 41 9.28918 11.6707
    endloop
  endfacet
  facet normal -3.16003e-017 0.989821 0.142315
    outer loop
      vertex 45 9.28918 11.6707
      vertex 41 9.28918 11.6707
      vertex 45 9.03257 13.4554
    endloop
  endfacet
  facet normal -3.16003e-017 0.989821 0.142315
    outer loop
      vertex 45 9.03257 13.4554
      vertex 41 9.28918 11.6707
      vertex 41 9.03257 13.4554
    endloop
  endfacet
  facet normal -3.16003e-017 -0.989821 0.142315
    outer loop
      vertex 45 15.1108 11.6707
      vertex 45 15.3674 13.4554
      vertex 41 15.3674 13.4554
    endloop
  endfacet
  facet normal -3.16003e-017 -0.989821 0.142315
    outer loop
      vertex 41 15.1108 11.6707
      vertex 45 15.1108 11.6707
      vertex 41 15.3674 13.4554
    endloop
  endfacet
  facet normal 9.22407e-017 -0.909632 -0.415415
    outer loop
      vertex 41 15.3674 13.4554
      vertex 45 15.3674 13.4554
      vertex 45 14.6184 15.0956
    endloop
  endfacet
  facet normal 9.22407e-017 -0.909632 -0.415415
    outer loop
      vertex 41 14.6184 15.0956
      vertex 41 15.3674 13.4554
      vertex 45 14.6184 15.0956
    endloop
  endfacet
  facet normal 1.86796e-016 -0.540641 -0.841253
    outer loop
      vertex 45 14.6184 15.0956
      vertex 45 13.1015 16.0704
      vertex 41 14.6184 15.0956
    endloop
  endfacet
  facet normal 1.86796e-016 -0.540641 -0.841253
    outer loop
      vertex 41 14.6184 15.0956
      vertex 45 13.1015 16.0704
      vertex 41 13.1015 16.0704
    endloop
  endfacet
  facet normal 2.22045e-016 0 -1
    outer loop
      vertex 45 13.1015 16.0704
      vertex 45 11.2985 16.0704
      vertex 41 13.1015 16.0704
    endloop
  endfacet
  facet normal 2.22045e-016 0 -1
    outer loop
      vertex 41 13.1015 16.0704
      vertex 45 11.2985 16.0704
      vertex 41 11.2985 16.0704
    endloop
  endfacet
  facet normal 1.86796e-016 0.540641 -0.841253
    outer loop
      vertex 45 11.2985 16.0704
      vertex 45 9.7816 15.0956
      vertex 41 11.2985 16.0704
    endloop
  endfacet
  facet normal 1.86796e-016 0.540641 -0.841253
    outer loop
      vertex 41 11.2985 16.0704
      vertex 45 9.7816 15.0956
      vertex 41 9.7816 15.0956
    endloop
  endfacet
  facet normal 9.22407e-017 0.909632 -0.415415
    outer loop
      vertex 45 9.7816 15.0956
      vertex 45 9.03257 13.4554
      vertex 41 9.7816 15.0956
    endloop
  endfacet
  facet normal 9.22407e-017 0.909632 -0.415415
    outer loop
      vertex 41 9.7816 15.0956
      vertex 45 9.03257 13.4554
      vertex 41 9.03257 13.4554
    endloop
  endfacet
  facet normal 0 0 -1
    outer loop
      vertex 19.951 22.9741 7
      vertex 21.1008 24.9656 7
      vertex 19.2404 20.787 7
    endloop
  endfacet
  facet normal 0 0 -1
    outer loop
      vertex 19.2404 20.787 7
      vertex 21.1008 24.9656 7
      vertex 22.6396 26.6746 7
    endloop
  endfacet
  facet normal 0 0 -1
    outer loop
      vertex 19.2404 20.787 7
      vertex 22.6396 26.6746 7
      vertex 24.5 28.0263 7
    endloop
  endfacet
  facet normal 0 0 -1
    outer loop
      vertex 19.2404 20.787 7
      vertex 24.5 28.0263 7
      vertex 26.6008 28.9616 7
    endloop
  endfacet
  facet normal 0 0 -1
    outer loop
      vertex 19.2404 20.787 7
      vertex 26.6008 28.9616 7
      vertex 28.8502 29.4397 7
    endloop
  endfacet
  facet normal 0 0 -1
    outer loop
      vertex 19.2404 20.787 7
      vertex 28.8502 29.4397 7
      vertex 31.1498 29.4397 7
    endloop
  endfacet
  facet normal 0 0 -1
    outer loop
      vertex 19.2404 20.787 7
      vertex 31.1498 29.4397 7
      vertex 33.3992 28.9616 7
    endloop
  endfacet
  facet normal 0 0 -1
    outer loop
      vertex 19.2404 20.787 7
      vertex 33.3992 28.9616 7
      vertex 35.5 28.0263 7
    endloop
  endfacet
  facet normal 0 0 -1
    outer loop
      vertex 19.2404 20.787 7
      vertex 35.5 28.0263 7
      vertex 37.3604 26.6746 7
    endloop
  endfacet
  facet normal 0 0 -1
    outer loop
      vertex 19.2404 20.787 7
      vertex 37.3604 26.6746 7
      vertex 38.8992 24.9656 7
    endloop
  endfacet
  facet normal 0 0 -1
    outer loop
      vertex 19.2404 20.787 7
      vertex 38.8992 24.9656 7
      vertex 40.049 22.9741 7
    endloop
  endfacet
  facet normal 0 0 -1
    outer loop
      vertex 19.2404 20.787 7
      vertex 40.049 22.9741 7
      vertex 40.7596 20.787 7
    endloop
  endfacet
  facet normal 0 0 -1
    outer loop
      vertex 19.2404 20.787 7
      vertex 40.7596 20.787 7
      vertex 41 18.5 7
    endloop
  endfacet
  facet normal 0 0 -1
    outer loop
      vertex 19.2404 20.787 7
      vertex 41 18.5 7
      vertex 40.7596 16.213 7
    endloop
  endfacet
  facet normal 0 0 -1
    outer loop
      vertex 19.2404 20.787 7
      vertex 40.7596 16.213 7
      vertex 40.049 14.0259 7
    endloop
  endfacet
  facet normal 0 0 -1
    outer loop
      vertex 19.2404 20.787 7
      vertex 40.049 14.0259 7
      vertex 38.8992 12.0344 7
    endloop
  endfacet
  facet normal 0 0 -1
    outer loop
      vertex 19.2404 20.787 7
      vertex 38.8992 12.0344 7
      vertex 37.3604 10.3254 7
    endloop
  endfacet
  facet normal 0 0 -1
    outer loop
      vertex 19.2404 20.787 7
      vertex 37.3604 10.3254 7
      vertex 35.5 8.97372 7
    endloop
  endfacet
  facet normal 0 0 -1
    outer loop
      vertex 19.2404 20.787 7
      vertex 35.5 8.97372 7
      vertex 33.3992 8.03838 7
    endloop
  endfacet
  facet normal 0 0 -1
    outer loop
      vertex 19.2404 20.787 7
      vertex 33.3992 8.03838 7
      vertex 31.1498 7.56026 7
    endloop
  endfacet
  facet normal 0 0 -1
    outer loop
      vertex 19.2404 20.787 7
      vertex 31.1498 7.56026 7
      vertex 28.8502 7.56026 7
    endloop
  endfacet
  facet normal 0 0 -1
    outer loop
      vertex 19.2404 20.787 7
      vertex 28.8502 7.56026 7
      vertex 26.6008 8.03838 7
    endloop
  endfacet
  facet normal 0 0 -1
    outer loop
      vertex 19.2404 20.787 7
      vertex 26.6008 8.03838 7
      vertex 24.5 8.97372 7
    endloop
  endfacet
  facet normal 0 0 -1
    outer loop
      vertex 19.2404 20.787 7
      vertex 24.5 8.97372 7
      vertex 22.6396 10.3254 7
    endloop
  endfacet
  facet normal 0 0 -1
    outer loop
      vertex 19.2404 20.787 7
      vertex 22.6396 10.3254 7
      vertex 21.1008 12.0344 7
    endloop
  endfacet
  facet normal 0 0 -1
    outer loop
      vertex 19.2404 20.787 7
      vertex 21.1008 12.0344 7
      vertex 19.951 14.0259 7
    endloop
  endfacet
  facet normal 0 0 -1
    outer loop
      vertex 19.2404 20.787 7
      vertex 19.951 14.0259 7
      vertex 19.2404 16.213 7
    endloop
  endfacet
  facet normal 0 0 -1
    outer loop
      vertex 19.2404 20.787 7
      vertex 19.2404 16.213 7
      vertex 19 18.5 7
    endloop
  endfacet
  facet normal 0.974928 -0.222521 0
    outer loop
      vertex 26.2159 20.3223 8.5
      vertex 26.2159 20.3223 10
      vertex 25.8 18.5 10
    endloop
  endfacet
  facet normal 0.974928 -0.222521 0
    outer loop
      vertex 25.8 18.5 8.5
      vertex 26.2159 20.3223 8.5
      vertex 25.8 18.5 10
    endloop
  endfacet
  facet normal 0.974928 0.222521 0
    outer loop
      vertex 25.8 18.5 10
      vertex 26.2159 16.6777 10
      vertex 26.2159 16.6777 8.5
    endloop
  endfacet
  facet normal 0.974928 0.222521 0
    outer loop
      vertex 25.8 18.5 8.5
      vertex 25.8 18.5 10
      vertex 26.2159 16.6777 8.5
    endloop
  endfacet
  facet normal 0.781831 0.62349 0
    outer loop
      vertex 26.2159 16.6777 10
      vertex 27.3813 15.2163 10
      vertex 27.3813 15.2163 8.5
    endloop
  endfacet
  facet normal 0.781831 0.62349 0
    outer loop
      vertex 26.2159 16.6777 8.5
      vertex 26.2159 16.6777 10
      vertex 27.3813 15.2163 8.5
    endloop
  endfacet
  facet normal 0.433884 0.900969 0
    outer loop
      vertex 29.0654 14.4053 10
      vertex 29.0654 14.4053 8.5
      vertex 27.3813 15.2163 10
    endloop
  endfacet
  facet normal 0.433884 0.900969 0
    outer loop
      vertex 27.3813 15.2163 10
      vertex 29.0654 14.4053 8.5
      vertex 27.3813 15.2163 8.5
    endloop
  endfacet
  facet normal 0 1 0
    outer loop
      vertex 30.9346 14.4053 10
      vertex 30.9346 14.4053 8.5
      vertex 29.0654 14.4053 10
    endloop
  endfacet
  facet normal 0 1 0
    outer loop
      vertex 29.0654 14.4053 10
      vertex 30.9346 14.4053 8.5
      vertex 29.0654 14.4053 8.5
    endloop
  endfacet
  facet normal -0.433884 0.900969 0
    outer loop
      vertex 32.6187 15.2163 10
      vertex 32.6187 15.2163 8.5
      vertex 30.9346 14.4053 10
    endloop
  endfacet
  facet normal -0.433884 0.900969 0
    outer loop
      vertex 30.9346 14.4053 10
      vertex 32.6187 15.2163 8.5
      vertex 30.9346 14.4053 8.5
    endloop
  endfacet
  facet normal -0.781831 0.62349 0
    outer loop
      vertex 33.7841 16.6777 10
      vertex 33.7841 16.6777 8.5
      vertex 32.6187 15.2163 10
    endloop
  endfacet
  facet normal -0.781831 0.62349 0
    outer loop
      vertex 32.6187 15.2163 10
      vertex 33.7841 16.6777 8.5
      vertex 32.6187 15.2163 8.5
    endloop
  endfacet
  facet normal -0.974928 0.222521 0
    outer loop
      vertex 34.2 18.5 10
      vertex 34.2 18.5 8.5
      vertex 33.7841 16.6777 10
    endloop
  endfacet
  facet normal -0.974928 0.222521 0
    outer loop
      vertex 33.7841 16.6777 10
      vertex 34.2 18.5 8.5
      vertex 33.7841 16.6777 8.5
    endloop
  endfacet
  facet normal -0.974928 -0.222521 0
    outer loop
      vertex 34.2 18.5 10
      vertex 33.7841 20.3223 10
      vertex 34.2 18.5 8.5
    endloop
  endfacet
  facet normal -0.974928 -0.222521 0
    outer loop
      vertex 34.2 18.5 8.5
      vertex 33.7841 20.3223 10
      vertex 33.7841 20.3223 8.5
    endloop
  endfacet
  facet normal -0.781831 -0.62349 0
    outer loop
      vertex 33.7841 20.3223 10
      vertex 32.6187 21.7837 10
      vertex 33.7841 20.3223 8.5
    endloop
  endfacet
  facet normal -0.781831 -0.62349 0
    outer loop
      vertex 33.7841 20.3223 8.5
      vertex 32.6187 21.7837 10
      vertex 32.6187 21.7837 8.5
    endloop
  endfacet
  facet normal -0.433884 -0.900969 0
    outer loop
      vertex 32.6187 21.7837 8.5
      vertex 32.6187 21.7837 10
      vertex 30.9346 22.5947 10
    endloop
  endfacet
  facet normal -0.433884 -0.900969 0
    outer loop
      vertex 30.9346 22.5947 8.5
      vertex 32.6187 21.7837 8.5
      vertex 30.9346 22.5947 10
    endloop
  endfacet
  facet normal 0 -1 0
    outer loop
      vertex 30.9346 22.5947 8.5
      vertex 30.9346 22.5947 10
      vertex 29.0654 22.5947 10
    endloop
  endfacet
  facet normal 0 -1 0
    outer loop
      vertex 29.0654 22.5947 8.5
      vertex 30.9346 22.5947 8.5
      vertex 29.0654 22.5947 10
    endloop
  endfacet
  facet normal 0.433884 -0.900969 0
    outer loop
      vertex 29.0654 22.5947 8.5
      vertex 29.0654 22.5947 10
      vertex 27.3813 21.7837 10
    endloop
  endfacet
  facet normal 0.433884 -0.900969 0
    outer loop
      vertex 27.3813 21.7837 8.5
      vertex 29.0654 22.5947 8.5
      vertex 27.3813 21.7837 10
    endloop
  endfacet
  facet normal 0.781831 -0.62349 0
    outer loop
      vertex 27.3813 21.7837 8.5
      vertex 27.3813 21.7837 10
      vertex 26.2159 20.3223 10
    endloop
  endfacet
  facet normal 0.781831 -0.62349 0
    outer loop
      vertex 26.2159 20.3223 8.5
      vertex 27.3813 21.7837 8.5
      vertex 26.2159 20.3223 10
    endloop
  endfacet
  facet normal 0 0 1
    outer loop
      vertex 19.2404 16.213 28
      vertex 19.951 14.0259 28
      vertex 21.1008 12.0344 28
    endloop
  endfacet
  facet normal 0 0 1
    outer loop
      vertex 24.5 8.97372 28
      vertex 19.2404 16.213 28
      vertex 22.6396 10.3254 28
    endloop
  endfacet
  facet normal 0 0 1
    outer loop
      vertex 22.6396 10.3254 28
      vertex 19.2404 16.213 28
      vertex 21.1008 12.0344 28
    endloop
  endfacet
  facet normal 0 0 1
    outer loop
      vertex 26.6008 8.03838 28
      vertex 19.2404 16.213 28
      vertex 24.5 8.97372 28
    endloop
  endfacet
  facet normal 0 0 1
    outer loop
      vertex 28.8502 7.56026 28
      vertex 19.2404 16.213 28
      vertex 26.6008 8.03838 28
    endloop
  endfacet
  facet normal 0 0 1
    outer loop
      vertex 31.1498 7.56026 28
      vertex 19.2404 16.213 28
      vertex 28.8502 7.56026 28
    endloop
  endfacet
  facet normal 0 0 1
    outer loop
      vertex 33.3992 8.03838 28
      vertex 19.2404 16.213 28
      vertex 31.1498 7.56026 28
    endloop
  endfacet
  facet normal 0 0 1
    outer loop
      vertex 35.5 8.97372 28
      vertex 19.2404 16.213 28
      vertex 33.3992 8.03838 28
    endloop
  endfacet
  facet normal 0 0 1
    outer loop
      vertex 37.3604 10.3254 28
      vertex 19.2404 16.213 28
      vertex 35.5 8.97372 28
    endloop
  endfacet
  facet normal 0 0 1
    outer loop
      vertex 38.8992 12.0344 28
      vertex 19.2404 16.213 28
      vertex 37.3604 10.3254 28
    endloop
  endfacet
  facet normal 0 0 1
    outer loop
      vertex 29.0654 14.4053 28
      vertex 19.2404 16.213 28
      vertex 38.8992 12.0344 28
    endloop
  endfacet
  facet normal 0 0 1
    outer loop
      vertex 27.3813 15.2163 28
      vertex 26.2159 16.6777 28
      vertex 19.2404 16.213 28
    endloop
  endfacet
  facet normal 0 0 1
    outer loop
      vertex 32.6187 21.7837 28
      vertex 33.7841 20.3223 28
      vertex 40.049 22.9741 28
    endloop
  endfacet
  facet normal 0 0 1
    outer loop
      vertex 30.9346 22.5947 28
      vertex 32.6187 21.7837 28
      vertex 38.8992 24.9656 28
    endloop
  endfacet
  facet normal 0 0 1
    outer loop
      vertex 33.3992 28.9616 28
      vertex 19.2404 16.213 28
      vertex 35.5 28.0263 28
    endloop
  endfacet
  facet normal 0 0 1
    outer loop
      vertex 31.1498 29.4397 28
      vertex 19.2404 16.213 28
      vertex 33.3992 28.9616 28
    endloop
  endfacet
  facet normal 0 0 1
    outer loop
      vertex 28.8502 29.4397 28
      vertex 19.2404 16.213 28
      vertex 31.1498 29.4397 28
    endloop
  endfacet
  facet normal 0 0 1
    outer loop
      vertex 26.6008 28.9616 28
      vertex 19.2404 16.213 28
      vertex 28.8502 29.4397 28
    endloop
  endfacet
  facet normal 0 0 1
    outer loop
      vertex 24.5 28.0263 28
      vertex 19.2404 16.213 28
      vertex 26.6008 28.9616 28
    endloop
  endfacet
  facet normal 0 0 1
    outer loop
      vertex 22.6396 26.6746 28
      vertex 19.2404 16.213 28
      vertex 24.5 28.0263 28
    endloop
  endfacet
  facet normal 0 0 1
    outer loop
      vertex 21.1008 24.9656 28
      vertex 19.2404 16.213 28
      vertex 22.6396 26.6746 28
    endloop
  endfacet
  facet normal 0 0 1
    outer loop
      vertex 19.951 22.9741 28
      vertex 19.2404 16.213 28
      vertex 21.1008 24.9656 28
    endloop
  endfacet
  facet normal 0 0 1
    outer loop
      vertex 19.2404 20.787 28
      vertex 19.2404 16.213 28
      vertex 19.951 22.9741 28
    endloop
  endfacet
  facet normal 0 0 1
    outer loop
      vertex 19 18.5 28
      vertex 19.2404 16.213 28
      vertex 19.2404 20.787 28
    endloop
  endfacet
  facet normal 0 0 1
    outer loop
      vertex 33.7841 20.3223 28
      vertex 34.2 18.5 28
      vertex 40.7596 20.787 28
    endloop
  endfacet
  facet normal 0 0 1
    outer loop
      vertex 27.3813 21.7837 28
      vertex 19.2404 16.213 28
      vertex 26.2159 20.3223 28
    endloop
  endfacet
  facet normal 0 0 1
    outer loop
      vertex 29.0654 22.5947 28
      vertex 30.9346 22.5947 28
      vertex 37.3604 26.6746 28
    endloop
  endfacet
  facet normal 0 0 1
    outer loop
      vertex 35.5 28.0263 28
      vertex 19.2404 16.213 28
      vertex 27.3813 21.7837 28
    endloop
  endfacet
  facet normal 0 0 1
    outer loop
      vertex 35.5 28.0263 28
      vertex 29.0654 22.5947 28
      vertex 37.3604 26.6746 28
    endloop
  endfacet
  facet normal 0 0 1
    outer loop
      vertex 37.3604 26.6746 28
      vertex 30.9346 22.5947 28
      vertex 38.8992 24.9656 28
    endloop
  endfacet
  facet normal 0 0 1
    outer loop
      vertex 27.3813 21.7837 28
      vertex 29.0654 22.5947 28
      vertex 35.5 28.0263 28
    endloop
  endfacet
  facet normal 0 0 1
    outer loop
      vertex 38.8992 24.9656 28
      vertex 32.6187 21.7837 28
      vertex 40.049 22.9741 28
    endloop
  endfacet
  facet normal 0 0 1
    outer loop
      vertex 40.049 22.9741 28
      vertex 33.7841 20.3223 28
      vertex 40.7596 20.787 28
    endloop
  endfacet
  facet normal 0 0 1
    outer loop
      vertex 32.6187 15.2163 28
      vertex 30.9346 14.4053 28
      vertex 40.049 14.0259 28
    endloop
  endfacet
  facet normal 0 0 1
    outer loop
      vertex 40.7596 20.787 28
      vertex 34.2 18.5 28
      vertex 41 18.5 28
    endloop
  endfacet
  facet normal 0 0 1
    outer loop
      vertex 25.8 18.5 28
      vertex 26.2159 20.3223 28
      vertex 19.2404 16.213 28
    endloop
  endfacet
  facet normal 0 0 1
    outer loop
      vertex 41 18.5 28
      vertex 33.7841 16.6777 28
      vertex 40.7596 16.213 28
    endloop
  endfacet
  facet normal 0 0 1
    outer loop
      vertex 40.7596 16.213 28
      vertex 32.6187 15.2163 28
      vertex 40.049 14.0259 28
    endloop
  endfacet
  facet normal 0 0 1
    outer loop
      vertex 40.049 14.0259 28
      vertex 30.9346 14.4053 28
      vertex 38.8992 12.0344 28
    endloop
  endfacet
  facet normal 0 0 1
    outer loop
      vertex 30.9346 14.4053 28
      vertex 29.0654 14.4053 28
      vertex 38.8992 12.0344 28
    endloop
  endfacet
  facet normal 0 0 1
    outer loop
      vertex 29.0654 14.4053 28
      vertex 27.3813 15.2163 28
      vertex 19.2404 16.213 28
    endloop
  endfacet
  facet normal 0 0 1
    outer loop
      vertex 34.2 18.5 28
      vertex 33.7841 16.6777 28
      vertex 41 18.5 28
    endloop
  endfacet
  facet normal 0 0 1
    outer loop
      vertex 33.7841 16.6777 28
      vertex 32.6187 15.2163 28
      vertex 40.7596 16.213 28
    endloop
  endfacet
  facet normal 0 0 1
    outer loop
      vertex 26.2159 16.6777 28
      vertex 25.8 18.5 28
      vertex 19.2404 16.213 28
    endloop
  endfacet
  facet normal 0 0 1
    outer loop
      vertex 26.2159 16.6777 8.5
      vertex 27.3813 15.2163 8.5
      vertex 29.0654 14.4053 8.5
    endloop
  endfacet
  facet normal 0 0 1
    outer loop
      vertex 32.6187 15.2163 8.5
      vertex 26.2159 16.6777 8.5
      vertex 30.9346 14.4053 8.5
    endloop
  endfacet
  facet normal 0 0 1
    outer loop
      vertex 30.9346 14.4053 8.5
      vertex 26.2159 16.6777 8.5
      vertex 29.0654 14.4053 8.5
    endloop
  endfacet
  facet normal 0 0 1
    outer loop
      vertex 33.7841 16.6777 8.5
      vertex 26.2159 16.6777 8.5
      vertex 32.6187 15.2163 8.5
    endloop
  endfacet
  facet normal 0 0 1
    outer loop
      vertex 34.2 18.5 8.5
      vertex 26.2159 16.6777 8.5
      vertex 33.7841 16.6777 8.5
    endloop
  endfacet
  facet normal 0 0 1
    outer loop
      vertex 33.7841 20.3223 8.5
      vertex 26.2159 16.6777 8.5
      vertex 34.2 18.5 8.5
    endloop
  endfacet
  facet normal 0 0 1
    outer loop
      vertex 32.6187 21.7837 8.5
      vertex 26.2159 16.6777 8.5
      vertex 33.7841 20.3223 8.5
    endloop
  endfacet
  facet normal 0 0 1
    outer loop
      vertex 30.9346 22.5947 8.5
      vertex 26.2159 16.6777 8.5
      vertex 32.6187 21.7837 8.5
    endloop
  endfacet
  facet normal 0 0 1
    outer loop
      vertex 29.0654 22.5947 8.5
      vertex 26.2159 16.6777 8.5
      vertex 30.9346 22.5947 8.5
    endloop
  endfacet
  facet normal 0 0 1
    outer loop
      vertex 27.3813 21.7837 8.5
      vertex 26.2159 16.6777 8.5
      vertex 29.0654 22.5947 8.5
    endloop
  endfacet
  facet normal 0 0 1
    outer loop
      vertex 26.2159 20.3223 8.5
      vertex 26.2159 16.6777 8.5
      vertex 27.3813 21.7837 8.5
    endloop
  endfacet
  facet normal 0 0 1
    outer loop
      vertex 25.8 18.5 8.5
      vertex 26.2159 16.6777 8.5
      vertex 26.2159 20.3223 8.5
    endloop
  endfacet
  facet normal 0.974928 -0.222521 0
    outer loop
      vertex 26.2159 20.3223 19
      vertex 26.2159 20.3223 28
      vertex 25.8 18.5 28
    endloop
  endfacet
  facet normal 0.974928 -0.222521 0
    outer loop
      vertex 25.8 18.5 19
      vertex 26.2159 20.3223 19
      vertex 25.8 18.5 28
    endloop
  endfacet
  facet normal 0.974928 0.222521 0
    outer loop
      vertex 25.8 18.5 28
      vertex 26.2159 16.6777 28
      vertex 26.2159 16.6777 19
    endloop
  endfacet
  facet normal 0.974928 0.222521 0
    outer loop
      vertex 25.8 18.5 19
      vertex 25.8 18.5 28
      vertex 26.2159 16.6777 19
    endloop
  endfacet
  facet normal 0.781831 0.62349 0
    outer loop
      vertex 26.2159 16.6777 28
      vertex 27.3813 15.2163 28
      vertex 27.3813 15.2163 19
    endloop
  endfacet
  facet normal 0.781831 0.62349 0
    outer loop
      vertex 26.2159 16.6777 19
      vertex 26.2159 16.6777 28
      vertex 27.3813 15.2163 19
    endloop
  endfacet
  facet normal 0.433884 0.900969 0
    outer loop
      vertex 29.0654 14.4053 28
      vertex 29.0654 14.4053 19
      vertex 27.3813 15.2163 28
    endloop
  endfacet
  facet normal 0.433884 0.900969 0
    outer loop
      vertex 27.3813 15.2163 28
      vertex 29.0654 14.4053 19
      vertex 27.3813 15.2163 19
    endloop
  endfacet
  facet normal 0 1 0
    outer loop
      vertex 30.9346 14.4053 28
      vertex 30.9346 14.4053 19
      vertex 29.0654 14.4053 28
    endloop
  endfacet
  facet normal 0 1 0
    outer loop
      vertex 29.0654 14.4053 28
      vertex 30.9346 14.4053 19
      vertex 29.0654 14.4053 19
    endloop
  endfacet
  facet normal -0.433884 0.900969 0
    outer loop
      vertex 32.6187 15.2163 28
      vertex 32.6187 15.2163 19
      vertex 30.9346 14.4053 28
    endloop
  endfacet
  facet normal -0.433884 0.900969 0
    outer loop
      vertex 30.9346 14.4053 28
      vertex 32.6187 15.2163 19
      vertex 30.9346 14.4053 19
    endloop
  endfacet
  facet normal -0.781831 0.62349 0
    outer loop
      vertex 33.7841 16.6777 28
      vertex 33.7841 16.6777 19
      vertex 32.6187 15.2163 28
    endloop
  endfacet
  facet normal -0.781831 0.62349 0
    outer loop
      vertex 32.6187 15.2163 28
      vertex 33.7841 16.6777 19
      vertex 32.6187 15.2163 19
    endloop
  endfacet
  facet normal -0.974928 0.222521 0
    outer loop
      vertex 34.2 18.5 28
      vertex 34.2 18.5 19
      vertex 33.7841 16.6777 28
    endloop
  endfacet
  facet normal -0.974928 0.222521 0
    outer loop
      vertex 33.7841 16.6777 28
      vertex 34.2 18.5 19
      vertex 33.7841 16.6777 19
    endloop
  endfacet
  facet normal -0.974928 -0.222521 0
    outer loop
      vertex 34.2 18.5 28
      vertex 33.7841 20.3223 28
      vertex 34.2 18.5 19
    endloop
  endfacet
  facet normal -0.974928 -0.222521 0
    outer loop
      vertex 34.2 18.5 19
      vertex 33.7841 20.3223 28
      vertex 33.7841 20.3223 19
    endloop
  endfacet
  facet normal -0.781831 -0.62349 0
    outer loop
      vertex 33.7841 20.3223 28
      vertex 32.6187 21.7837 28
      vertex 33.7841 20.3223 19
    endloop
  endfacet
  facet normal -0.781831 -0.62349 0
    outer loop
      vertex 33.7841 20.3223 19
      vertex 32.6187 21.7837 28
      vertex 32.6187 21.7837 19
    endloop
  endfacet
  facet normal -0.433884 -0.900969 0
    outer loop
      vertex 32.6187 21.7837 19
      vertex 32.6187 21.7837 28
      vertex 30.9346 22.5947 28
    endloop
  endfacet
  facet normal -0.433884 -0.900969 0
    outer loop
      vertex 30.9346 22.5947 19
      vertex 32.6187 21.7837 19
      vertex 30.9346 22.5947 28
    endloop
  endfacet
  facet normal 0 -1 0
    outer loop
      vertex 30.9346 22.5947 19
      vertex 30.9346 22.5947 28
      vertex 29.0654 22.5947 28
    endloop
  endfacet
  facet normal 0 -1 0
    outer loop
      vertex 29.0654 22.5947 19
      vertex 30.9346 22.5947 19
      vertex 29.0654 22.5947 28
    endloop
  endfacet
  facet normal 0.433884 -0.900969 0
    outer loop
      vertex 29.0654 22.5947 19
      vertex 29.0654 22.5947 28
      vertex 27.3813 21.7837 28
    endloop
  endfacet
  facet normal 0.433884 -0.900969 0
    outer loop
      vertex 27.3813 21.7837 19
      vertex 29.0654 22.5947 19
      vertex 27.3813 21.7837 28
    endloop
  endfacet
  facet normal 0.781831 -0.62349 0
    outer loop
      vertex 27.3813 21.7837 19
      vertex 27.3813 21.7837 28
      vertex 26.2159 20.3223 28
    endloop
  endfacet
  facet normal 0.781831 -0.62349 0
    outer loop
      vertex 26.2159 20.3223 19
      vertex 27.3813 21.7837 19
      vertex 26.2159 20.3223 28
    endloop
  endfacet
  facet normal 0 0 1
    outer loop
      vertex 26.2159 16.6777 19
      vertex 27.3813 15.2163 19
      vertex 29.0654 14.4053 19
    endloop
  endfacet
  facet normal 0 0 1
    outer loop
      vertex 32.6187 15.2163 19
      vertex 26.2159 16.6777 19
      vertex 30.9346 14.4053 19
    endloop
  endfacet
  facet normal 0 0 1
    outer loop
      vertex 30.9346 14.4053 19
      vertex 26.2159 16.6777 19
      vertex 29.0654 14.4053 19
    endloop
  endfacet
  facet normal 0 0 1
    outer loop
      vertex 33.7841 16.6777 19
      vertex 26.2159 16.6777 19
      vertex 32.6187 15.2163 19
    endloop
  endfacet
  facet normal 0 0 1
    outer loop
      vertex 34.2 18.5 19
      vertex 26.2159 16.6777 19
      vertex 33.7841 16.6777 19
    endloop
  endfacet
  facet normal 0 0 1
    outer loop
      vertex 33.7841 20.3223 19
      vertex 26.2159 16.6777 19
      vertex 34.2 18.5 19
    endloop
  endfacet
  facet normal 0 0 1
    outer loop
      vertex 32.6187 21.7837 19
      vertex 26.2159 16.6777 19
      vertex 33.7841 20.3223 19
    endloop
  endfacet
  facet normal 0 0 1
    outer loop
      vertex 30.9346 22.5947 19
      vertex 26.2159 16.6777 19
      vertex 32.6187 21.7837 19
    endloop
  endfacet
  facet normal 0 0 1
    outer loop
      vertex 29.0654 22.5947 19
      vertex 26.2159 16.6777 19
      vertex 30.9346 22.5947 19
    endloop
  endfacet
  facet normal 0 0 1
    outer loop
      vertex 27.3813 21.7837 19
      vertex 26.2159 16.6777 19
      vertex 29.0654 22.5947 19
    endloop
  endfacet
  facet normal 0 0 1
    outer loop
      vertex 26.2159 20.3223 19
      vertex 26.2159 16.6777 19
      vertex 27.3813 21.7837 19
    endloop
  endfacet
  facet normal 0 0 1
    outer loop
      vertex 25.8 18.5 19
      vertex 26.2159 16.6777 19
      vertex 26.2159 20.3223 19
    endloop
  endfacet
endsolid OpenSCAD_Model
