solid OpenSCAD_Model
  facet normal -1 0 0
    outer loop
      vertex 0 0 0
      vertex 0 26 26
      vertex 0 52 0
    endloop
  endfacet
  facet normal -1 0 0
    outer loop
      vertex 0 26 26
      vertex 0 0 52
      vertex 0 26 52
    endloop
  endfacet
  facet normal -1 0 0
    outer loop
      vertex 0 0 0
      vertex 0 0 52
      vertex 0 26 26
    endloop
  endfacet
  facet normal -1 0 0
    outer loop
      vertex 0 52 26
      vertex 0 52 0
      vertex 0 26 26
    endloop
  endfacet
  facet normal 0 -1 0
    outer loop
      vertex 26 0 26
      vertex 0 0 0
      vertex 52 0 0
    endloop
  endfacet
  facet normal 0 -1 0
    outer loop
      vertex 26 0 26
      vertex 0 0 52
      vertex 0 0 0
    endloop
  endfacet
  facet normal 0 -1 0
    outer loop
      vertex 52 0 26
      vertex 26 0 26
      vertex 52 0 0
    endloop
  endfacet
  facet normal 0 -1 0
    outer loop
      vertex 26 0 26
      vertex 26 0 52
      vertex 0 0 52
    endloop
  endfacet
  facet normal 0 0 -1
    outer loop
      vertex 0 0 0
      vertex 26 26 0
      vertex 52 0 0
    endloop
  endfacet
  facet normal 0 0 -1
    outer loop
      vertex 26 26 0
      vertex 0 52 0
      vertex 26 52 0
    endloop
  endfacet
  facet normal 0 0 -1
    outer loop
      vertex 0 0 0
      vertex 0 52 0
      vertex 26 26 0
    endloop
  endfacet
  facet normal 0 0 -1
    outer loop
      vertex 52 26 0
      vertex 52 0 0
      vertex 26 26 0
    endloop
  endfacet
  facet normal 0 1 0
    outer loop
      vertex 7.9 52 5.1
      vertex 8 52 8
      vertex 26 52 8
    endloop
  endfacet
  facet normal 0 1 0
    outer loop
      vertex 3 52 23
      vertex 0 52 26
      vertex 8 52 26
    endloop
  endfacet
  facet normal 0 1 0
    outer loop
      vertex 0 52 0
      vertex 0 52 26
      vertex 3 52 3
    endloop
  endfacet
  facet normal 0 1 0
    outer loop
      vertex 7.9 52 5.1
      vertex 26 52 8
      vertex 23 52 5.1
    endloop
  endfacet
  facet normal 0 1 0
    outer loop
      vertex 3 52 3
      vertex 0 52 26
      vertex 3 52 23
    endloop
  endfacet
  facet normal 0 1 0
    outer loop
      vertex 5.1 52 23
      vertex 3 52 23
      vertex 8 52 26
    endloop
  endfacet
  facet normal 0 1 0
    outer loop
      vertex 5.1 52 23
      vertex 8 52 8
      vertex 5.1 52 7.9
    endloop
  endfacet
  facet normal 0 1 0
    outer loop
      vertex 0 52 0
      vertex 3 52 3
      vertex 26 52 0
    endloop
  endfacet
  facet normal 0 1 0
    outer loop
      vertex 3 52 3
      vertex 8 52 3
      vertex 26 52 0
    endloop
  endfacet
  facet normal 0 1 0
    outer loop
      vertex 5.1 52 7.9
      vertex 8 52 8
      vertex 7.9 52 5.1
    endloop
  endfacet
  facet normal 0 1 0
    outer loop
      vertex 15 52 5
      vertex 15.5 52 3
      vertex 15 52 3
    endloop
  endfacet
  facet normal 0 1 0
    outer loop
      vertex 8 52 3
      vertex 8 52 5
      vertex 8.5 52 3
    endloop
  endfacet
  facet normal 0 1 0
    outer loop
      vertex 8 52 3
      vertex 8.5 52 3
      vertex 26 52 0
    endloop
  endfacet
  facet normal 0 1 0
    outer loop
      vertex 23 52 3
      vertex 26 52 0
      vertex 15.5 52 3
    endloop
  endfacet
  facet normal 0 1 0
    outer loop
      vertex 8.5 52 3
      vertex 15 52 3
      vertex 26 52 0
    endloop
  endfacet
  facet normal 0 1 0
    outer loop
      vertex 23 52 5.1
      vertex 26 52 0
      vertex 23 52 3
    endloop
  endfacet
  facet normal 0 1 0
    outer loop
      vertex 15.5 52 3
      vertex 15 52 5
      vertex 15.5 52 5
    endloop
  endfacet
  facet normal 0 1 0
    outer loop
      vertex 26 52 0
      vertex 23 52 5.1
      vertex 26 52 8
    endloop
  endfacet
  facet normal 0 1 0
    outer loop
      vertex 15.5 52 3
      vertex 26 52 0
      vertex 15 52 3
    endloop
  endfacet
  facet normal 0 1 0
    outer loop
      vertex 8.5 52 3
      vertex 8 52 5
      vertex 8.5 52 5
    endloop
  endfacet
  facet normal 0 1 0
    outer loop
      vertex 8 52 8
      vertex 5.1 52 23
      vertex 8 52 26
    endloop
  endfacet
  facet normal 0 0 1
    outer loop
      vertex 0 52 26
      vertex 0 26 26
      vertex 8 26 26
    endloop
  endfacet
  facet normal 0 0 1
    outer loop
      vertex 8 52 26
      vertex 0 52 26
      vertex 8 26 26
    endloop
  endfacet
  facet normal 0 1 0
    outer loop
      vertex 0 26 26
      vertex 0 26 52
      vertex 8 26 26
    endloop
  endfacet
  facet normal 0 1 0
    outer loop
      vertex 8 26 26
      vertex 0 26 52
      vertex 8 26 52
    endloop
  endfacet
  facet normal 0 0 1
    outer loop
      vertex 3 3 52
      vertex 0 0 52
      vertex 26 0 52
    endloop
  endfacet
  facet normal 0 0 1
    outer loop
      vertex 3 3 52
      vertex 3 23 52
      vertex 0 26 52
    endloop
  endfacet
  facet normal 0 0 1
    outer loop
      vertex 0 26 52
      vertex 0 0 52
      vertex 3 3 52
    endloop
  endfacet
  facet normal 0 0 1
    outer loop
      vertex 23 3 52
      vertex 3 3 52
      vertex 26 0 52
    endloop
  endfacet
  facet normal 0 0 1
    outer loop
      vertex 8 26 52
      vertex 0 26 52
      vertex 5.1 23 52
    endloop
  endfacet
  facet normal 0 0 1
    outer loop
      vertex 7.9 5.1 52
      vertex 23 5.1 52
      vertex 8 8 52
    endloop
  endfacet
  facet normal 0 0 1
    outer loop
      vertex 5.1 23 52
      vertex 5.1 7.9 52
      vertex 8 8 52
    endloop
  endfacet
  facet normal 0 0 1
    outer loop
      vertex 26 8 52
      vertex 23 5.1 52
      vertex 26 0 52
    endloop
  endfacet
  facet normal 0 0 1
    outer loop
      vertex 5.1 7.9 52
      vertex 7.9 5.1 52
      vertex 8 8 52
    endloop
  endfacet
  facet normal 0 0 1
    outer loop
      vertex 23 5.1 52
      vertex 23 3 52
      vertex 26 0 52
    endloop
  endfacet
  facet normal 0 0 1
    outer loop
      vertex 3 23 52
      vertex 5.1 23 52
      vertex 0 26 52
    endloop
  endfacet
  facet normal 0 0 1
    outer loop
      vertex 26 8 52
      vertex 8 8 52
      vertex 23 5.1 52
    endloop
  endfacet
  facet normal 0 0 1
    outer loop
      vertex 8 8 52
      vertex 8 26 52
      vertex 5.1 23 52
    endloop
  endfacet
  facet normal 1 0 0
    outer loop
      vertex 26 0 52
      vertex 26 0 26
      vertex 26 8 26
    endloop
  endfacet
  facet normal 1 0 0
    outer loop
      vertex 26 8 52
      vertex 26 0 52
      vertex 26 8 26
    endloop
  endfacet
  facet normal 0 0 1
    outer loop
      vertex 26 8 26
      vertex 26 0 26
      vertex 52 0 26
    endloop
  endfacet
  facet normal 0 0 1
    outer loop
      vertex 52 8 26
      vertex 26 8 26
      vertex 52 0 26
    endloop
  endfacet
  facet normal 1 0 0
    outer loop
      vertex 52 3 3
      vertex 52 0 0
      vertex 52 26 0
    endloop
  endfacet
  facet normal 1 0 0
    outer loop
      vertex 52 15 5
      vertex 52 15 3
      vertex 52 15.5 3
    endloop
  endfacet
  facet normal 1 0 0
    outer loop
      vertex 52 0 26
      vertex 52 0 0
      vertex 52 3 3
    endloop
  endfacet
  facet normal 1 0 0
    outer loop
      vertex 52 15 3
      vertex 52 8.5 3
      vertex 52 26 0
    endloop
  endfacet
  facet normal 1 0 0
    outer loop
      vertex 52 3 3
      vertex 52 3 23
      vertex 52 0 26
    endloop
  endfacet
  facet normal 1 0 0
    outer loop
      vertex 52 8 26
      vertex 52 0 26
      vertex 52 5.1 23
    endloop
  endfacet
  facet normal 1 0 0
    outer loop
      vertex 52 5.1 23
      vertex 52 5.1 7.9
      vertex 52 8 8
    endloop
  endfacet
  facet normal 1 0 0
    outer loop
      vertex 52 26 8
      vertex 52 23 5.1
      vertex 52 26 0
    endloop
  endfacet
  facet normal 1 0 0
    outer loop
      vertex 52 5.1 7.9
      vertex 52 7.9 5.1
      vertex 52 8 8
    endloop
  endfacet
  facet normal 1 0 0
    outer loop
      vertex 52 23 5.1
      vertex 52 23 3
      vertex 52 26 0
    endloop
  endfacet
  facet normal 1 0 0
    outer loop
      vertex 52 3 23
      vertex 52 5.1 23
      vertex 52 0 26
    endloop
  endfacet
  facet normal 1 0 0
    outer loop
      vertex 52 8.5 3
      vertex 52 8.5 5
      vertex 52 8 5
    endloop
  endfacet
  facet normal 1 0 0
    outer loop
      vertex 52 15.5 3
      vertex 52 15 3
      vertex 52 26 0
    endloop
  endfacet
  facet normal 1 0 0
    outer loop
      vertex 52 23 3
      vertex 52 15.5 3
      vertex 52 26 0
    endloop
  endfacet
  facet normal 1 0 0
    outer loop
      vertex 52 8.5 3
      vertex 52 8 3
      vertex 52 26 0
    endloop
  endfacet
  facet normal 1 0 0
    outer loop
      vertex 52 8 3
      vertex 52 3 3
      vertex 52 26 0
    endloop
  endfacet
  facet normal 1 0 0
    outer loop
      vertex 52 8 5
      vertex 52 8 3
      vertex 52 8.5 3
    endloop
  endfacet
  facet normal 1 0 0
    outer loop
      vertex 52 15.5 3
      vertex 52 15.5 5
      vertex 52 15 5
    endloop
  endfacet
  facet normal 1 0 0
    outer loop
      vertex 52 26 8
      vertex 52 8 8
      vertex 52 23 5.1
    endloop
  endfacet
  facet normal 1 0 0
    outer loop
      vertex 52 8 8
      vertex 52 8 26
      vertex 52 5.1 23
    endloop
  endfacet
  facet normal 1 0 0
    outer loop
      vertex 52 7.9 5.1
      vertex 52 23 5.1
      vertex 52 8 8
    endloop
  endfacet
  facet normal 0 1 0
    outer loop
      vertex 26 26 0
      vertex 26 26 8
      vertex 52 26 0
    endloop
  endfacet
  facet normal 0 1 0
    outer loop
      vertex 52 26 0
      vertex 26 26 8
      vertex 52 26 8
    endloop
  endfacet
  facet normal 1 0 0
    outer loop
      vertex 26 26 8
      vertex 26 26 0
      vertex 26 52 0
    endloop
  endfacet
  facet normal 1 0 0
    outer loop
      vertex 26 52 8
      vertex 26 26 8
      vertex 26 52 0
    endloop
  endfacet
  facet normal 0 0 1
    outer loop
      vertex 52 8 8
      vertex 52 26 8
      vertex 26 26 8
    endloop
  endfacet
  facet normal 0 0 1
    outer loop
      vertex 8 8 8
      vertex 52 8 8
      vertex 26 26 8
    endloop
  endfacet
  facet normal 0 0 1
    outer loop
      vertex 26 52 8
      vertex 8 52 8
      vertex 26 26 8
    endloop
  endfacet
  facet normal 0 0 1
    outer loop
      vertex 8 52 8
      vertex 8 8 8
      vertex 26 26 8
    endloop
  endfacet
  facet normal 1 0 0
    outer loop
      vertex 8 52 8
      vertex 8 52 26
      vertex 8 26 26
    endloop
  endfacet
  facet normal 1 0 0
    outer loop
      vertex 8 8 8
      vertex 8 52 8
      vertex 8 26 26
    endloop
  endfacet
  facet normal 1 0 0
    outer loop
      vertex 8 26 52
      vertex 8 8 52
      vertex 8 26 26
    endloop
  endfacet
  facet normal 1 0 0
    outer loop
      vertex 8 8 52
      vertex 8 8 8
      vertex 8 26 26
    endloop
  endfacet
  facet normal 1 0 0
    outer loop
      vertex 3 52 3
      vertex 3 52 23
      vertex 3 26 23
    endloop
  endfacet
  facet normal 1 0 0
    outer loop
      vertex 3 26 3
      vertex 3 52 3
      vertex 3 26 23
    endloop
  endfacet
  facet normal 0 0 -1
    outer loop
      vertex 5.1 52 23
      vertex 5.1 26 23
      vertex 3 52 23
    endloop
  endfacet
  facet normal 0 0 -1
    outer loop
      vertex 3 52 23
      vertex 5.1 26 23
      vertex 3 26 23
    endloop
  endfacet
  facet normal -1 0 0
    outer loop
      vertex 5.1 52 23
      vertex 5.1 52 7.9
      vertex 5.1 26 23
    endloop
  endfacet
  facet normal -1 0 0
    outer loop
      vertex 5.1 26 23
      vertex 5.1 52 7.9
      vertex 5.1 26 7.9
    endloop
  endfacet
  facet normal -1 0 0
    outer loop
      vertex 5.1 26 23
      vertex 5.1 26 7.9
      vertex 5.1 26 5.1
    endloop
  endfacet
  facet normal -0.707107 -1.57009e-016 -0.707107
    outer loop
      vertex 7.9 52 5.1
      vertex 7.9 26 5.1
      vertex 5.1 52 7.9
    endloop
  endfacet
  facet normal -0.707107 -1.57009e-016 -0.707107
    outer loop
      vertex 5.1 52 7.9
      vertex 7.9 26 5.1
      vertex 5.1 26 7.9
    endloop
  endfacet
  facet normal 0 0 -1
    outer loop
      vertex 7.9 26 5.1
      vertex 7.9 52 5.1
      vertex 23 52 5.1
    endloop
  endfacet
  facet normal 0 0 -1
    outer loop
      vertex 7.9 26 5.1
      vertex 23 52 5.1
      vertex 23 26 5.1
    endloop
  endfacet
  facet normal 0 0 -1
    outer loop
      vertex 7.9 26 5.1
      vertex 23 26 5.1
      vertex 5.1 26 5.1
    endloop
  endfacet
  facet normal -1 0 0
    outer loop
      vertex 23 52 5.1
      vertex 23 52 3
      vertex 23 26 5.1
    endloop
  endfacet
  facet normal -1 0 0
    outer loop
      vertex 23 26 5.1
      vertex 23 52 3
      vertex 23 26 3
    endloop
  endfacet
  facet normal 0 0 1
    outer loop
      vertex 23 26 3
      vertex 23 52 3
      vertex 15.5 52 3
    endloop
  endfacet
  facet normal 0 0 1
    outer loop
      vertex 15.5 26 3
      vertex 23 26 3
      vertex 15.5 52 3
    endloop
  endfacet
  facet normal 1 0 0
    outer loop
      vertex 15.5 26 5
      vertex 15.5 26 3
      vertex 15.5 52 3
    endloop
  endfacet
  facet normal 1 0 0
    outer loop
      vertex 15.5 52 5
      vertex 15.5 26 5
      vertex 15.5 52 3
    endloop
  endfacet
  facet normal 0 0 1
    outer loop
      vertex 15 52 5
      vertex 15 26 5
      vertex 15.5 26 5
    endloop
  endfacet
  facet normal 0 0 1
    outer loop
      vertex 15.5 52 5
      vertex 15 52 5
      vertex 15.5 26 5
    endloop
  endfacet
  facet normal -1 0 0
    outer loop
      vertex 15 26 3
      vertex 15 26 5
      vertex 15 52 3
    endloop
  endfacet
  facet normal -1 0 0
    outer loop
      vertex 15 52 3
      vertex 15 26 5
      vertex 15 52 5
    endloop
  endfacet
  facet normal 0 0 1
    outer loop
      vertex 15 26 3
      vertex 15 52 3
      vertex 8.5 52 3
    endloop
  endfacet
  facet normal 0 0 1
    outer loop
      vertex 8.5 26 3
      vertex 15 26 3
      vertex 8.5 52 3
    endloop
  endfacet
  facet normal 1 0 0
    outer loop
      vertex 8.5 26 5
      vertex 8.5 26 3
      vertex 8.5 52 3
    endloop
  endfacet
  facet normal 1 0 0
    outer loop
      vertex 8.5 52 5
      vertex 8.5 26 5
      vertex 8.5 52 3
    endloop
  endfacet
  facet normal 0 0 1
    outer loop
      vertex 8 52 5
      vertex 8 26 5
      vertex 8.5 26 5
    endloop
  endfacet
  facet normal 0 0 1
    outer loop
      vertex 8.5 52 5
      vertex 8 52 5
      vertex 8.5 26 5
    endloop
  endfacet
  facet normal -1 0 0
    outer loop
      vertex 8 26 3
      vertex 8 26 5
      vertex 8 52 3
    endloop
  endfacet
  facet normal -1 0 0
    outer loop
      vertex 8 52 3
      vertex 8 26 5
      vertex 8 52 5
    endloop
  endfacet
  facet normal 0 0 1
    outer loop
      vertex 8 26 3
      vertex 8 52 3
      vertex 3 52 3
    endloop
  endfacet
  facet normal 0 0 1
    outer loop
      vertex 3 26 3
      vertex 8 26 3
      vertex 3 52 3
    endloop
  endfacet
  facet normal 0 1 0
    outer loop
      vertex 26 8 52
      vertex 26 8 26
      vertex 8 8 52
    endloop
  endfacet
  facet normal 0 1 0
    outer loop
      vertex 52 8 8
      vertex 26 8 26
      vertex 52 8 26
    endloop
  endfacet
  facet normal 0 1 0
    outer loop
      vertex 8 8 8
      vertex 26 8 26
      vertex 52 8 8
    endloop
  endfacet
  facet normal 0 1 0
    outer loop
      vertex 8 8 52
      vertex 26 8 26
      vertex 8 8 8
    endloop
  endfacet
  facet normal 1 0 0
    outer loop
      vertex 3 23 26
      vertex 3 23 52
      vertex 3 3 52
    endloop
  endfacet
  facet normal 1 0 0
    outer loop
      vertex 3 3 26
      vertex 3 23 26
      vertex 3 3 52
    endloop
  endfacet
  facet normal 0 1 0
    outer loop
      vertex 23 3 52
      vertex 23 3 26
      vertex 3 3 52
    endloop
  endfacet
  facet normal 0 1 0
    outer loop
      vertex 3 3 52
      vertex 23 3 26
      vertex 3 3 26
    endloop
  endfacet
  facet normal -1 0 0
    outer loop
      vertex 23 5.1 52
      vertex 23 5.1 26
      vertex 23 3 52
    endloop
  endfacet
  facet normal -1 0 0
    outer loop
      vertex 23 3 52
      vertex 23 5.1 26
      vertex 23 3 26
    endloop
  endfacet
  facet normal 0 -1 0
    outer loop
      vertex 23 5.1 26
      vertex 23 5.1 52
      vertex 7.9 5.1 52
    endloop
  endfacet
  facet normal 0 -1 0
    outer loop
      vertex 7.9 5.1 26
      vertex 23 5.1 26
      vertex 7.9 5.1 52
    endloop
  endfacet
  facet normal -0.707107 -0.707107 0
    outer loop
      vertex 7.9 5.1 26
      vertex 7.9 5.1 52
      vertex 5.1 7.9 52
    endloop
  endfacet
  facet normal -0.707107 -0.707107 0
    outer loop
      vertex 5.1 7.9 26
      vertex 7.9 5.1 26
      vertex 5.1 7.9 52
    endloop
  endfacet
  facet normal -1 0 0
    outer loop
      vertex 5.1 23 52
      vertex 5.1 23 26
      vertex 5.1 7.9 52
    endloop
  endfacet
  facet normal -1 0 0
    outer loop
      vertex 5.1 7.9 52
      vertex 5.1 23 26
      vertex 5.1 7.9 26
    endloop
  endfacet
  facet normal 0 -1 0
    outer loop
      vertex 5.1 23 26
      vertex 5.1 23 52
      vertex 3 23 52
    endloop
  endfacet
  facet normal 0 -1 0
    outer loop
      vertex 3 23 26
      vertex 5.1 23 26
      vertex 3 23 52
    endloop
  endfacet
  facet normal 0 1 0
    outer loop
      vertex 52 3 23
      vertex 52 3 3
      vertex 26 3 23
    endloop
  endfacet
  facet normal 0 1 0
    outer loop
      vertex 26 3 23
      vertex 52 3 3
      vertex 26 3 3
    endloop
  endfacet
  facet normal 0 0 1
    outer loop
      vertex 52 3 3
      vertex 52 8 3
      vertex 26 8 3
    endloop
  endfacet
  facet normal 0 0 1
    outer loop
      vertex 26 3 3
      vertex 52 3 3
      vertex 26 8 3
    endloop
  endfacet
  facet normal 0 -1 0
    outer loop
      vertex 26 8 5
      vertex 26 8 3
      vertex 52 8 3
    endloop
  endfacet
  facet normal 0 -1 0
    outer loop
      vertex 52 8 5
      vertex 26 8 5
      vertex 52 8 3
    endloop
  endfacet
  facet normal 0 0 1
    outer loop
      vertex 26 8.5 5
      vertex 26 8 5
      vertex 52 8 5
    endloop
  endfacet
  facet normal 0 0 1
    outer loop
      vertex 52 8.5 5
      vertex 26 8.5 5
      vertex 52 8 5
    endloop
  endfacet
  facet normal 0 1 0
    outer loop
      vertex 26 8.5 3
      vertex 26 8.5 5
      vertex 52 8.5 3
    endloop
  endfacet
  facet normal 0 1 0
    outer loop
      vertex 52 8.5 3
      vertex 26 8.5 5
      vertex 52 8.5 5
    endloop
  endfacet
  facet normal 0 0 1
    outer loop
      vertex 52 8.5 3
      vertex 52 15 3
      vertex 26 15 3
    endloop
  endfacet
  facet normal 0 0 1
    outer loop
      vertex 26 8.5 3
      vertex 52 8.5 3
      vertex 26 15 3
    endloop
  endfacet
  facet normal 0 -1 0
    outer loop
      vertex 26 15 5
      vertex 26 15 3
      vertex 52 15 3
    endloop
  endfacet
  facet normal 0 -1 0
    outer loop
      vertex 52 15 5
      vertex 26 15 5
      vertex 52 15 3
    endloop
  endfacet
  facet normal 0 0 1
    outer loop
      vertex 26 15.5 5
      vertex 26 15 5
      vertex 52 15 5
    endloop
  endfacet
  facet normal 0 0 1
    outer loop
      vertex 52 15.5 5
      vertex 26 15.5 5
      vertex 52 15 5
    endloop
  endfacet
  facet normal 0 1 0
    outer loop
      vertex 26 15.5 3
      vertex 26 15.5 5
      vertex 52 15.5 3
    endloop
  endfacet
  facet normal 0 1 0
    outer loop
      vertex 52 15.5 3
      vertex 26 15.5 5
      vertex 52 15.5 5
    endloop
  endfacet
  facet normal 0 0 1
    outer loop
      vertex 52 15.5 3
      vertex 52 23 3
      vertex 26 23 3
    endloop
  endfacet
  facet normal 0 0 1
    outer loop
      vertex 26 15.5 3
      vertex 52 15.5 3
      vertex 26 23 3
    endloop
  endfacet
  facet normal 0 -1 0
    outer loop
      vertex 52 23 3
      vertex 52 23 5.1
      vertex 26 23 5.1
    endloop
  endfacet
  facet normal 0 -1 0
    outer loop
      vertex 26 23 3
      vertex 52 23 3
      vertex 26 23 5.1
    endloop
  endfacet
  facet normal 0 0 -1
    outer loop
      vertex 52 23 5.1
      vertex 52 7.9 5.1
      vertex 26 23 5.1
    endloop
  endfacet
  facet normal 0 0 -1
    outer loop
      vertex 26 23 5.1
      vertex 52 7.9 5.1
      vertex 26 7.9 5.1
    endloop
  endfacet
  facet normal 0 0 -1
    outer loop
      vertex 26 23 5.1
      vertex 26 7.9 5.1
      vertex 26 5.1 5.1
    endloop
  endfacet
  facet normal 0 -0.707107 -0.707107
    outer loop
      vertex 26 7.9 5.1
      vertex 52 7.9 5.1
      vertex 52 5.1 7.9
    endloop
  endfacet
  facet normal 0 -0.707107 -0.707107
    outer loop
      vertex 26 5 8
      vertex 26 7.9 5.1
      vertex 26 5.1 7.9
    endloop
  endfacet
  facet normal 0 -0.707107 -0.707107
    outer loop
      vertex 26 5.1 7.9
      vertex 26 7.9 5.1
      vertex 52 5.1 7.9
    endloop
  endfacet
  facet normal 0 -1 0
    outer loop
      vertex 52 5.1 7.9
      vertex 52 5.1 23
      vertex 26 5.1 23
    endloop
  endfacet
  facet normal 0 -1 0
    outer loop
      vertex 26 5.1 7.9
      vertex 52 5.1 7.9
      vertex 26 5.1 23
    endloop
  endfacet
  facet normal 0 0 -1
    outer loop
      vertex 52 5.1 23
      vertex 52 3 23
      vertex 26 5.1 23
    endloop
  endfacet
  facet normal 0 0 -1
    outer loop
      vertex 26 5.1 23
      vertex 52 3 23
      vertex 26 3 23
    endloop
  endfacet
  facet normal 0 1 0
    outer loop
      vertex 5.1 26 23
      vertex 5.1 26 5.1
      vertex 3 26 23
    endloop
  endfacet
  facet normal 0 1 0
    outer loop
      vertex 15.5 26 5
      vertex 5.1 26 5.1
      vertex 23 26 5.1
    endloop
  endfacet
  facet normal 0 1 0
    outer loop
      vertex 8.5 26 5
      vertex 15 26 3
      vertex 8.5 26 3
    endloop
  endfacet
  facet normal 0 1 0
    outer loop
      vertex 15 26 5
      vertex 5.1 26 5.1
      vertex 15.5 26 5
    endloop
  endfacet
  facet normal 0 1 0
    outer loop
      vertex 23 26 3
      vertex 15.5 26 5
      vertex 23 26 5.1
    endloop
  endfacet
  facet normal 0 1 0
    outer loop
      vertex 8.5 26 5
      vertex 5.1 26 5.1
      vertex 15 26 5
    endloop
  endfacet
  facet normal 0 1 0
    outer loop
      vertex 8 26 5
      vertex 5.1 26 5.1
      vertex 8.5 26 5
    endloop
  endfacet
  facet normal 0 1 0
    outer loop
      vertex 8 26 3
      vertex 5.1 26 5.1
      vertex 8 26 5
    endloop
  endfacet
  facet normal 0 1 0
    outer loop
      vertex 15 26 3
      vertex 8.5 26 5
      vertex 15 26 5
    endloop
  endfacet
  facet normal 0 1 0
    outer loop
      vertex 3 26 3
      vertex 5.1 26 5.1
      vertex 8 26 3
    endloop
  endfacet
  facet normal 0 1 0
    outer loop
      vertex 3 26 23
      vertex 5.1 26 5.1
      vertex 3 26 3
    endloop
  endfacet
  facet normal 0 1 0
    outer loop
      vertex 15.5 26 5
      vertex 23 26 3
      vertex 15.5 26 3
    endloop
  endfacet
  facet normal 0 1 -2.22045e-016
    outer loop
      vertex 5.1 26 7.9
      vertex 7.9 26 5.1
      vertex 5.1 26 5.1
    endloop
  endfacet
  facet normal 0 0 1
    outer loop
      vertex 5.1 7.9 26
      vertex 3 3 26
      vertex 7.9 5.1 26
    endloop
  endfacet
  facet normal 0 0 1
    outer loop
      vertex 23 3 26
      vertex 23 5.1 26
      vertex 7.9 5.1 26
    endloop
  endfacet
  facet normal 0 0 1
    outer loop
      vertex 3 3 26
      vertex 23 3 26
      vertex 7.9 5.1 26
    endloop
  endfacet
  facet normal 0 0 1
    outer loop
      vertex 5.1 23 26
      vertex 3 23 26
      vertex 5.1 7.9 26
    endloop
  endfacet
  facet normal 0 0 1
    outer loop
      vertex 3 23 26
      vertex 3 3 26
      vertex 5.1 7.9 26
    endloop
  endfacet
  facet normal 1 0 0
    outer loop
      vertex 26 23 5.1
      vertex 26 8 5
      vertex 26 8.5 5
    endloop
  endfacet
  facet normal 1 0 0
    outer loop
      vertex 26 15 5
      vertex 26 23 5.1
      vertex 26 8.5 5
    endloop
  endfacet
  facet normal 1 0 0
    outer loop
      vertex 26 8 3
      vertex 26 8 5
      vertex 26 5.1 5.1
    endloop
  endfacet
  facet normal 1 0 0
    outer loop
      vertex 26 8.5 3
      vertex 26 15 3
      vertex 26 8.5 5
    endloop
  endfacet
  facet normal 1 0 0
    outer loop
      vertex 26 15 3
      vertex 26 15 5
      vertex 26 8.5 5
    endloop
  endfacet
  facet normal 1 0 0
    outer loop
      vertex 26 15.5 5
      vertex 26 23 5.1
      vertex 26 15 5
    endloop
  endfacet
  facet normal 1 0 0
    outer loop
      vertex 26 5 5
      vertex 26 3 3
      vertex 26 8 3
    endloop
  endfacet
  facet normal 1 0 0
    outer loop
      vertex 26 15.5 3
      vertex 26 23 3
      vertex 26 15.5 5
    endloop
  endfacet
  facet normal 1 0 0
    outer loop
      vertex 26 23 3
      vertex 26 23 5.1
      vertex 26 15.5 5
    endloop
  endfacet
  facet normal 1 0 0
    outer loop
      vertex 26 23 5.1
      vertex 26 5.1 5.1
      vertex 26 8 5
    endloop
  endfacet
  facet normal 1 0 0
    outer loop
      vertex 26 5.1 5.1
      vertex 26 5 5
      vertex 26 8 3
    endloop
  endfacet
  facet normal 1 0 0
    outer loop
      vertex 26 5 8
      vertex 26 3 23
      vertex 26 5 5
    endloop
  endfacet
  facet normal 1 0 0
    outer loop
      vertex 26 5.1 23
      vertex 26 3 23
      vertex 26 5 8
    endloop
  endfacet
  facet normal 1 0 0
    outer loop
      vertex 26 3 23
      vertex 26 3 3
      vertex 26 5 5
    endloop
  endfacet
  facet normal 1 0 0
    outer loop
      vertex 26 5.1 7.9
      vertex 26 5.1 23
      vertex 26 5 8
    endloop
  endfacet
  facet normal 1 -2.22045e-016 2.22045e-016
    outer loop
      vertex 26 5 5
      vertex 26 5.1 5.1
      vertex 26 5 8
    endloop
  endfacet
  facet normal 1 -2.22045e-016 2.22045e-016
    outer loop
      vertex 26 5 8
      vertex 26 5.1 5.1
      vertex 26 7.9 5.1
    endloop
  endfacet
endsolid OpenSCAD_Model
